<svg width="33" height="34" viewBox="0 0 33 34" fill="none" xmlns="http://www.w3.org/2000/svg">
<path d="M31.5085 0.615234H1.42703C0.703604 0.615234 0.119141 1.1997 0.119141 1.92312V32.0046C0.119141 32.728 0.703604 33.3125 1.42703 33.3125H31.5085C32.2319 33.3125 32.8164 32.728 32.8164 32.0046V1.92312C32.8164 1.1997 32.2319 0.615234 31.5085 0.615234ZM30.2006 30.6967H22.6762V20.6505H26.9268L27.5644 15.7173H22.6762V12.5661C22.6762 11.1356 23.0726 10.1628 25.1203 10.1628H27.732V5.7487C27.2783 5.68739 25.7293 5.55252 23.9227 5.55252C20.1544 5.55252 17.5754 7.85359 17.5754 12.0756V15.7132H13.3166V20.6464H17.5795V30.6967H2.73492V3.23101H30.2006V30.6967Z" fill="white"/>
</svg>
