<svg width="33" height="34" viewBox="0 0 33 34" fill="none" xmlns="http://www.w3.org/2000/svg">
<path fill-rule="evenodd" clip-rule="evenodd" d="M9.72767 0.713326C11.471 0.633069 12.0269 0.615234 16.4678 0.615234C20.9086 0.615234 21.4645 0.634555 23.2064 0.713326C24.9482 0.792097 26.1372 1.07002 27.1776 1.47279C28.267 1.88448 29.2554 2.52802 30.0728 3.36032C30.9051 4.17626 31.5471 5.16312 31.9573 6.25402C32.3616 7.29439 32.638 8.48338 32.7183 10.2223C32.7986 11.9686 32.8164 12.5245 32.8164 16.9639C32.8164 21.4047 32.7971 21.9606 32.7183 23.7039C32.6395 25.4428 32.3616 26.6318 31.9573 27.6722C31.5471 28.7632 30.904 29.7517 30.0728 30.5689C29.2554 31.4012 28.267 32.0432 27.1776 32.4534C26.1372 32.8577 24.9482 33.1341 23.2093 33.2144C21.4645 33.2946 20.9086 33.3125 16.4678 33.3125C12.0269 33.3125 11.471 33.2932 9.72767 33.2144C7.98877 33.1356 6.79978 32.8577 5.75942 32.4534C4.6684 32.0432 3.6799 31.4001 2.86274 30.5689C2.03101 29.7524 1.38737 28.7644 0.9767 27.6737C0.57393 26.6333 0.297489 25.4443 0.217232 23.7054C0.136975 21.9591 0.119141 21.4033 0.119141 16.9639C0.119141 12.523 0.138462 11.9671 0.217232 10.2253C0.296003 8.48338 0.57393 7.29439 0.9767 6.25402C1.38798 5.16325 2.03211 4.17524 2.86422 3.35883C3.68023 2.52728 4.66773 1.88365 5.75793 1.47279C6.7983 1.07002 7.98729 0.793583 9.72619 0.713326H9.72767ZM23.0741 3.65608C21.3501 3.57731 20.8328 3.56096 16.4678 3.56096C12.1027 3.56096 11.5855 3.57731 9.86143 3.65608C8.2667 3.7289 7.40171 3.99494 6.82505 4.21936C6.06261 4.51661 5.51716 4.86885 4.94496 5.44105C4.40255 5.96874 3.98511 6.61114 3.72327 7.32114C3.49885 7.8978 3.23281 8.76279 3.15998 10.3575C3.08121 12.0816 3.06487 12.5988 3.06487 16.9639C3.06487 21.3289 3.08121 21.8462 3.15998 23.5702C3.23281 25.1649 3.49885 26.0299 3.72327 26.6066C3.98485 27.3155 4.40248 27.9591 4.94496 28.4867C5.47257 29.0291 6.11611 29.4468 6.82505 29.7084C7.40171 29.9328 8.2667 30.1988 9.86143 30.2716C11.5855 30.3504 12.1012 30.3668 16.4678 30.3668C20.8343 30.3668 21.3501 30.3504 23.0741 30.2716C24.6688 30.1988 25.5338 29.9328 26.1105 29.7084C26.8729 29.4111 27.4184 29.0589 27.9906 28.4867C28.533 27.9591 28.9507 27.3155 29.2123 26.6066C29.4367 26.0299 29.7027 25.1649 29.7755 23.5702C29.8543 21.8462 29.8707 21.3289 29.8707 16.9639C29.8707 12.5988 29.8543 12.0816 29.7755 10.3575C29.7027 8.76279 29.4367 7.8978 29.2123 7.32114C28.915 6.5587 28.5628 6.01325 27.9906 5.44105C27.4628 4.89868 26.8205 4.48125 26.1105 4.21936C25.5338 3.99494 24.6688 3.7289 23.0741 3.65608V3.65608ZM14.3796 22.0037C15.5458 22.4891 16.8443 22.5547 18.0535 22.1891C19.2626 21.8235 20.3073 21.0494 21.0091 19.9991C21.711 18.9488 22.0264 17.6875 21.9015 16.4305C21.7767 15.1734 21.2193 13.9988 20.3246 13.1071C19.7542 12.5371 19.0645 12.1006 18.3052 11.8291C17.546 11.5576 16.7359 11.4579 15.9335 11.537C15.131 11.6162 14.356 11.8723 13.6644 12.2869C12.9728 12.7014 12.3817 13.2642 11.9337 13.9347C11.4857 14.6051 11.1919 15.3666 11.0735 16.1642C10.9551 16.9618 11.015 17.7758 11.2489 18.5475C11.4828 19.3192 11.8849 20.0294 12.4263 20.627C12.9676 21.2247 13.6347 21.6948 14.3796 22.0037ZM10.5258 11.0219C11.3061 10.2416 12.2325 9.62259 13.252 9.20029C14.2715 8.77798 15.3642 8.56063 16.4678 8.56063C17.5713 8.56063 18.664 8.77798 19.6835 9.20028C20.7031 9.62259 21.6294 10.2416 22.4097 11.0219C23.1901 11.8022 23.809 12.7286 24.2313 13.7481C24.6536 14.7676 24.871 15.8603 24.871 16.9639C24.871 18.0674 24.6536 19.1601 24.2313 20.1796C23.809 21.1992 23.1901 22.1255 22.4097 22.9058C20.8338 24.4818 18.6964 25.3671 16.4678 25.3671C14.2391 25.3671 12.1017 24.4818 10.5258 22.9058C8.94987 21.3299 8.06453 19.1925 8.06453 16.9639C8.06453 14.7352 8.94987 12.5978 10.5258 11.0219V11.0219ZM26.7347 9.81208C26.9281 9.62967 27.0829 9.41032 27.1899 9.16701C27.297 8.9237 27.3542 8.66139 27.3581 8.39559C27.3619 8.12979 27.3124 7.86592 27.2125 7.61959C27.1126 7.37327 26.9642 7.1495 26.7763 6.96153C26.5883 6.77356 26.3645 6.62522 26.1182 6.52529C25.8719 6.42535 25.608 6.37586 25.3422 6.37973C25.0764 6.38361 24.8141 6.44077 24.5708 6.54785C24.3275 6.65492 24.1081 6.80972 23.9257 7.00309C23.571 7.37915 23.3767 7.87866 23.3843 8.39559C23.3918 8.91252 23.6005 9.40616 23.9661 9.77172C24.3316 10.1373 24.8253 10.346 25.3422 10.3535C25.8591 10.361 26.3586 10.1668 26.7347 9.81208V9.81208Z" fill="white"/>
</svg>
