<svg width="27" height="28" viewBox="0 0 27 28" fill="none" xmlns="http://www.w3.org/2000/svg">
<path d="M13.7154 15.1667C15.6088 15.1667 17.1437 13.5997 17.1437 11.6667C17.1437 9.73375 15.6088 8.16675 13.7154 8.16675C11.822 8.16675 10.2871 9.73375 10.2871 11.6667C10.2871 13.5997 11.822 15.1667 13.7154 15.1667Z" stroke="#4D4C4F" stroke-width="2.21489" stroke-linecap="round" stroke-linejoin="round"/>
<path d="M13.7153 2.33337C11.2907 2.33337 8.96536 3.3167 7.25089 5.06704C5.53642 6.81738 4.57324 9.19135 4.57324 11.6667C4.57324 13.874 5.03263 15.3184 6.28738 16.9167L13.7153 25.6667L21.1432 16.9167C22.398 15.3184 22.8574 13.874 22.8574 11.6667C22.8574 9.19135 21.8942 6.81738 20.1797 5.06704C18.4652 3.3167 16.1399 2.33337 13.7153 2.33337V2.33337Z" stroke="#4D4C4F" stroke-width="2.21489" stroke-linecap="round" stroke-linejoin="round"/>
</svg>
