<?xml version="1.0" encoding="UTF-8"?><!DOCTYPE svg PUBLIC "-//W3C//DTD SVG 1.1//EN" "http://www.w3.org/Graphics/SVG/1.1/DTD/svg11.dtd"><svg xmlns="http://www.w3.org/2000/svg"><symbol id="SH_black" viewBox="0 0 829.64001 828.8667"><g fill="#100f0d"><path d="M645.444 828.867h-276.29v-92.094h184.197V460.481H184.195V-.003h276.289V92.09H276.289v276.3h369.155v460.478"/><path d="M277.052 828.867H0V-.003h92.092v736.776h92.868v-184.19h276.29v92.093H277.051v184.19M829.64 828.867h-92.093V92.089H644.68v184.198H368.392v-92.095h184.195V-.003H829.64v828.87"/></g></symbol><symbol id="search" viewBox="0 0 80 80"><path d="M59.446 55.911L49.337 45.802a15.905 15.905 0 0 0 3.069-9.396c0-8.837-7.163-16-16-16s-16 7.163-16 16 7.163 16 16 16c3.516 0 6.756-1.147 9.396-3.069l10.109 10.109 3.535-3.535zm-23.04-8.505c-6.065 0-11-4.935-11-11s4.935-11 11-11 11 4.935 11 11-4.935 11-11 11z"/></symbol><symbol id="studenterhuset" viewBox="0 0 2179.000000 284.000000"><path d="M54.1 1.1C29.2 6 11 21.7 4.1 44.2-.4 58.9-.6 78.9 3.5 95c2.5 9.9 9.6 23.6 16.3 31.5 3.3 3.9 14.5 14.7 24.9 24 31.3 28.3 39.4 37.8 43.4 50.4 4.3 14.1 2.4 29.7-4.5 36.1-2.5 2.2-3.6 2.5-10.5 2.5s-8.1-.3-11.4-2.8c-7.6-5.7-12.2-18.7-13.5-37.3-.7-10.9-.7-10.9-3.2-10.6-5.9.8-44.4 8.3-44.8 8.7-.2.2 0 5.1.7 10.9 3.8 36.1 15.2 57.2 36.6 67.6 11.2 5.5 18 7.1 33.5 7.7 16.6.6 25-.9 36.8-6.7 24.2-12 37.7-37.4 35.8-67.5-1.8-28.4-10.9-46.9-35-71.1-7.2-7.1-18.7-18.1-25.6-24.4-15.7-14.2-22.3-21.7-26.3-29.9-2.7-5.5-3.2-7.8-3.5-15.8-.5-11.4 1.1-16.5 6.8-21.7 8.1-7.3 19.5-5.9 25.7 3.3 2.7 4 4.2 10.7 5.3 23.9.4 5.7 1 10.5 1.2 10.7.4.4 38.8-5.7 44.6-7 2.3-.6 2.3-.8 1.7-7.3-3.2-33.1-14.1-54-33.3-63.6C95.7 1.8 86.2 0 71.6.1c-7.2.1-15.1.5-17.5 1zM1825.6 1.6c-14.8 3.3-25.9 9.5-35.2 19.8-10.2 11.3-15.1 24.7-16.1 44.6-1.2 24.8 6.3 46.9 21.5 63.2 2.6 2.8 14.2 13.8 25.9 24.5 23.2 21.2 29.9 28.2 35.5 37.4 9.6 15.8 8.8 40.7-1.5 46.9-3.6 2.2-11.8 2.7-16.4.9-10.1-3.8-15.6-16.9-18-42.5l-.8-8.1-19.5 3.7c-10.7 2-21.2 4-23.2 4.4-3.8.7-3.8.7-3.8 5.8 0 8.6 3 25.9 6.1 35.3 8.5 25.3 23.8 39.5 48.2 44.6 11.3 2.3 27 2.5 37.5.3 9.8-1.9 22.1-8 29.4-14.5 7.8-6.8 15.1-18.1 18.4-28.2 2.2-6.8 2.8-10.6 3.2-21.7.7-22.6-3.6-38.8-14.7-55.8-8.9-13.5-15.3-20.4-38.6-41.7-11.9-10.9-23.7-22.3-26.2-25.4-12-14.9-14.7-34.4-6.3-45.9 4.7-6.6 14.3-9 21.7-5.5 7.1 3.3 10.9 13.2 12 31.1l.6 10.3 2.6-.5c1.4-.3 10.9-1.9 21.1-3.6 10.2-1.7 19.6-3.3 20.9-3.6 2.4-.5 2.4-.6 1.7-9.9-1.4-20.7-8.4-39-19.1-50.4-6.9-7.2-13.2-11.2-22.9-14.3-8.4-2.8-34-3.4-44-1.2zM156 142v139h55V60l25.3-.2 25.2-.3v-56l-52.7-.3L156 3v139zM280.4 4.4c-1.1 2.9.3 205.9 1.5 214.1 5.3 36.4 19.3 54.8 47.8 62.7 6.8 1.9 10.4 2.2 27.8 2.2 22.4 0 29.4-1.3 42.3-7.6 13-6.4 23.7-20.4 29.1-38.2 4.8-15.8 5.1-22.5 5.1-132.2V3l-26.7.2-26.8.3-.5 109-.5 109-2.4 6c-4.2 10.5-12.4 15.6-22.8 14.1-9.3-1.2-14.8-7-18-18.7-1.5-5.8-1.7-15.8-2-113.2L333.9 3h-26.5c-22 0-26.6.2-27 1.4zM462 142.1v139.1l41.8-.5c42.9-.5 51.8-1.2 64.7-5.3 19.2-6.2 33-20.3 39.4-40.4 4.7-14.6 5.1-22 5.1-94.5 0-70.9-.4-78.5-4.6-92.5-4.6-15.5-15.5-29-28.5-35.4-16.2-7.9-30-9.6-80.4-9.6H462v139.1zm82.8-95.2c6.3 2.8 8.7 5.9 10.7 13.9 1.4 5.2 1.5 16.4 1.3 83.3-.3 73.5-.4 77.6-2.2 81.9-4.4 10.5-9.7 13.3-26.3 13.8l-12.3.4V43.8l11.8.4c9.5.3 12.7.8 17 2.7zM639 142v139h116v-40h-62v-85h48v-41h-48V43h62V3H639v139zM782 142v139h46l.2-75.5.3-75.5 23.4 60.2c12.9 33.2 26.1 67.2 29.3 75.6l6 15.2 18.2-.2 18.1-.3.3-138.8L924 3h-46l-.2 70.1-.3 70.1-28.7-69.8-28.7-69.9-19-.3L782 3v139zM956 142v139l27.3-.2 27.2-.3.3-110.3.2-110.2h50V3H956v139zM1083 142v139h116v-40h-62v-85h48v-41h-48V43h62V3h-116v139zM1226 141.9V281h54V156h17.9l1 3.7c.6 2.1 7.4 29.8 15.1 61.7 7.7 31.8 14.3 58.2 14.6 58.7.6 1 55.4 1.2 55.4.2 0-.4-8.1-30.8-18.1-67.6-9.9-36.8-17.9-67-17.7-67.1.1-.2 2.9-2 6-4 15-9.8 22.3-24.6 24.9-50.1.6-6.2.8-15.6.5-21.6-2.4-37.5-17.8-56.2-53.1-64-9.3-2-13.2-2.2-55.2-2.6l-45.3-.5v139.1zm79.6-98.8c16.9 3.1 23.1 14.4 22.1 40.8-.5 15.8-1.9 20.8-7.8 27.5-5.7 6.5-12.1 8.7-27.6 9.3l-12.3.6V42h9.8c5.4 0 12.5.5 15.8 1.1zM1411 142v139l27.3-.2 27.2-.3.3-61.3.2-61.2h45l.2 61.3.3 61.2 27.3.3 27.2.2V3h-55v113h-45V3h-55v139zM1599 104c0 64 .4 104.6 1.1 110.8 2.4 22.8 9.2 40.3 19.9 51.1 6.9 7 18.4 13.1 29.7 15.8 11.1 2.6 40.5 2.6 51.8 0 28.9-6.7 44-25.8 49.6-62.5.8-5.4 1.3-39.4 1.6-112l.4-104.2h-54l-.3 107.2c-.3 99.4-.5 107.7-2.1 113.3-2.4 8.2-4.5 11.4-9.6 15-3.7 2.6-5.1 3-10.9 3-12.2 0-18.7-6.1-21.7-20.1-1.2-5.8-1.5-24-1.5-112.7V3h-54v101zM1940 142v139h117v-40h-62v-85l23.8-.2 23.7-.3v-40l-23.7-.3-23.8-.2V43h61V3h-116v139zM2074 142v139l27.3-.2 27.2-.3.3-110.3.2-110.2h50V3h-105v139z"/></symbol><symbol id="symbol" viewBox="0 0 1018.000000 1063.000000"><path d="M0 531.5V1063h339l.2-118.3.3-118.2 112.7-.3L565 826V709H227v236H113V0H0v531.5z"/><path d="M226 295v295h453v355H453v118h338V473H339V118h225V0H226v295z"/><path d="M677.8 118.2l-.3 118.3-112.7.3-112.8.2v117h338V118h115v945h112V0H678l-.2 118.2z"/></symbol></svg>