<?xml version="1.0" encoding="utf-8"?>
<!-- Generator: Adobe Illustrator 26.3.1, SVG Export Plug-In . SVG Version: 6.00 Build 0)  -->
<svg version="1.1" id="a" xmlns="http://www.w3.org/2000/svg" xmlns:xlink="http://www.w3.org/1999/xlink" x="0px" y="0px"
	 viewBox="0 0 800 800" style="enable-background:new 0 0 800 800;" xml:space="preserve">
<style type="text/css">
	.st0{fill:#5874B6;}
</style>
<polygon class="st0" points="573,710.8 365.8,710.8 365.8,641.8 503.9,641.8 503.9,434.5 227,434.5 227,89.2 434.2,89.2 
	434.2,158.2 296.1,158.2 296.1,365.5 573,365.5 "/>
<polygon class="st0" points="296.7,710.8 88.9,710.8 88.9,89.2 157.9,89.2 157.9,641.8 227.6,641.8 227.6,503.6 434.8,503.6 
	434.8,572.7 296.7,572.7 "/>
<polygon class="st0" points="711.1,710.8 642,710.8 642,158.2 572.4,158.2 572.4,296.4 365.2,296.4 365.2,227.3 503.3,227.3 
	503.3,89.2 711.1,89.2 "/>
</svg>
