<svg width="268" height="36" viewBox="0 0 268 36" fill="none" xmlns="http://www.w3.org/2000/svg">
<path d="M261.682 0.494507H255.016V34.57H261.682V0.494507Z" fill="#5874B6"/>
<path d="M268 0.494507H261.682V7.41828H268V0.494507Z" fill="#5874B6"/>
<path d="M25.9744 0.494507H19.3083V34.57H25.9744V0.494507Z" fill="#5874B6"/>
<path d="M32.2924 0.494507H25.9746V7.41828H32.2924V0.494507Z" fill="#5874B6"/>
<path d="M124.266 0.494507H117.6V34.57H124.266V0.494507Z" fill="#5874B6"/>
<path d="M130.577 0.494507H124.259V7.41828H130.577V0.494507Z" fill="#5874B6"/>
<path d="M2.44491 32.4386C0.947317 30.7112 0.132346 28.0364 0 24.4073L5.30776 23.0003C5.36348 25.1666 6.03218 27.1518 6.5546 28.1827C7.07701 29.2066 7.85716 29.7221 8.90199 29.7221C9.67517 29.7221 10.2394 29.4643 10.5877 28.9419C10.9359 28.4195 11.1101 27.7578 11.1101 26.9428C11.1101 25.5915 10.8245 24.4491 10.2463 23.5088C9.67517 22.5684 8.76965 21.5375 7.54371 20.4091L4.17934 17.3303C2.84195 16.1531 1.82498 14.8854 1.11449 13.5341C0.404003 12.1828 0.0557247 10.5737 0.0557247 8.68606C0.0557247 5.9068 0.835868 3.7614 2.40312 2.25684C3.96341 0.75228 6.12273 0 8.87413 0C11.8136 0 13.8545 0.891592 15.0038 2.67478C16.1531 4.45796 16.794 6.5337 16.9542 9.2851L11.4932 10.3021C11.3887 8.47709 10.9917 7.23722 10.6573 6.38046C10.323 5.52369 9.66124 5.09183 8.67213 5.09183C7.94771 5.09183 7.39046 5.37741 6.98646 5.95556C6.58246 6.5337 6.38742 7.21632 6.38742 8.00343C6.38742 9.12489 6.62425 10.0792 7.09094 10.8523C7.55764 11.6255 8.30295 12.4753 9.31296 13.4017L12.6007 16.4387C14.1471 17.8736 15.366 19.3852 16.2437 20.9733C17.1283 22.5615 17.5672 24.4213 17.5672 26.5597C17.5672 28.1896 17.2189 29.6454 16.5223 30.9201C15.8258 32.2018 14.8436 33.2048 13.5759 33.9362C12.3082 34.6676 10.8454 35.0298 9.18758 35.0298C6.18542 35.0298 3.94251 34.1661 2.44491 32.4386Z" fill="#5874B6"/>
<path d="M220.572 32.6476C219.074 30.9202 218.259 28.2454 218.127 24.6163L223.434 23.2093C223.49 25.3756 224.159 27.3608 224.681 28.3917C225.204 29.4156 225.984 29.931 227.022 29.931C227.795 29.931 228.359 29.6733 228.707 29.1509C229.056 28.6285 229.23 27.9668 229.23 27.1518C229.23 25.8005 228.944 24.6581 228.366 23.7178C227.795 22.7774 226.889 21.7465 225.663 20.6181L222.299 17.5393C220.962 16.3621 219.938 15.0944 219.234 13.7431C218.524 12.3918 218.175 10.7827 218.175 8.89504C218.175 6.11578 218.956 3.97039 220.516 2.46583C222.076 0.961265 224.236 0.208984 226.987 0.208984C229.926 0.208984 231.967 1.10058 233.117 2.88376C234.266 4.66694 234.907 6.74268 235.067 9.49408L229.606 10.5111C229.501 8.68607 229.104 7.44621 228.77 6.58944C228.436 5.73268 227.774 5.30081 226.785 5.30081C226.06 5.30081 225.503 5.5864 225.099 6.16454C224.695 6.74268 224.5 7.42531 224.5 8.21242C224.5 9.33387 224.737 10.2882 225.204 11.0613C225.67 11.8345 226.416 12.6843 227.426 13.6107L230.713 16.6477C232.26 18.0826 233.479 19.5941 234.356 21.1823C235.241 22.7704 235.68 24.6303 235.68 26.7687C235.68 28.3986 235.332 29.8544 234.642 31.1291C233.946 32.4108 232.963 33.4138 231.696 34.1452C230.428 34.8766 228.965 35.2388 227.307 35.2388C224.312 35.2388 222.069 34.3751 220.572 32.6476Z" fill="#5874B6"/>
<path d="M56.7207 0.424866H65.0654C67.9353 0.424866 70.1712 0.801006 71.7872 1.53936C73.4032 2.28467 74.5525 3.42702 75.2421 4.97338C75.9317 6.51973 76.273 8.56761 76.273 11.124V23.5575C76.273 26.1696 75.9387 28.2732 75.263 29.8613C74.5874 31.4495 73.452 32.6267 71.8499 33.3998C70.2478 34.173 68.0397 34.5561 65.2326 34.5561H56.7207V0.424866ZM65.149 29.722C66.3541 29.722 67.2457 29.534 67.8238 29.1508C68.402 28.7677 68.7642 28.2175 68.9174 27.4861C69.0706 26.7547 69.1473 25.7029 69.1473 24.3237V10.2045C69.1473 8.91589 69.0567 7.93374 68.8756 7.27898C68.6945 6.61725 68.3184 6.12966 67.7611 5.80228C67.1969 5.48186 66.3123 5.31469 65.1072 5.31469H63.6305V29.722H65.149Z" fill="#5874B6"/>
<path d="M78.6204 0.424866H93.0112V5.23111H85.5302V14.2933H91.1932V19.1413H85.5302V29.8474H93.0948V34.5701H78.6204V0.424866Z" fill="#5874B6"/>
<path d="M96.2781 0.424866H101.126L108.224 18.1731V0.424866H113.511V34.5631H109.805L101.732 15.6795V34.5631H96.2781V0.424866Z" fill="#5874B6"/>
<path d="M133.279 0.424866H147.67V5.23111H140.189V14.2933H145.859V19.1413H140.189V29.8474H147.753V34.5701H133.279V0.424866Z" fill="#5874B6"/>
<path d="M150.707 0.424866H159.56C163.238 0.424866 165.523 1.10053 167.376 2.44488C169.228 3.7962 170.155 6.12966 170.155 9.43831C170.155 11.6603 169.848 13.4505 169.228 14.8088C168.609 16.174 168.003 17.2049 166.428 17.9084L171.151 34.5561H163.545L159.665 19.0856H157.624V34.5561H150.714L150.707 0.424866ZM159.686 14.969C161.316 14.969 161.97 14.565 162.632 13.7709C163.294 12.9698 163.621 11.716 163.621 9.99555C163.621 8.27506 163.329 7.07001 162.737 6.28987C162.144 5.50276 161.566 5.11269 160.02 5.11269H157.617V14.969H159.686Z" fill="#5874B6"/>
<path d="M173.679 0.424866H180.143V14.4187H186.168V0.424866H192.639V34.5631H186.168V19.4339H180.143V34.5631H173.679V0.424866Z" fill="#5874B6"/>
<path d="M200.35 33.7412C198.992 32.8844 198.038 31.6376 197.474 30.0146C196.916 28.3846 196.638 26.3089 196.638 23.7804V0.424866H203.109V24.7416C203.109 26.3716 203.297 27.6533 203.666 28.5797C204.035 29.5061 204.808 29.9728 205.979 29.9728C207.149 29.9728 207.922 29.5061 208.291 28.5797C208.66 27.6533 208.848 26.3716 208.848 24.7416V0.424866H215.354V23.7734C215.354 26.3019 215.076 28.3846 214.518 30.0076C213.961 31.6376 212.993 32.8774 211.621 33.7342C210.248 34.591 208.368 35.0228 205.972 35.0228C203.575 35.0228 201.709 34.5979 200.35 33.7412Z" fill="#5874B6"/>
<path d="M38.1504 33.5114C36.7921 32.6546 35.8378 31.4078 35.2736 29.7848C34.7164 28.1548 34.4377 26.0791 34.4377 23.5506V0.195068H40.9088V24.5119C40.9088 26.1418 41.0968 27.4235 41.466 28.3499C41.8352 29.2763 42.6083 29.743 43.7786 29.743C44.9488 29.743 45.722 29.2763 46.0911 28.3499C46.4603 27.4235 46.6484 26.1418 46.6484 24.5119V0.195068H53.1542V23.5436C53.1542 26.0721 52.8756 28.1548 52.3183 29.7778C51.7611 31.4078 50.7929 32.6476 49.4207 33.5044C48.0485 34.3612 46.1678 34.793 43.7716 34.793C41.3754 34.793 39.5087 34.3681 38.1504 33.5114Z" fill="#5874B6"/>
<path d="M238.584 0.424866H252.975V5.23111H245.494V14.2933H251.164V19.1413H245.494V29.8474H253.059V34.5701H238.584V0.424866Z" fill="#5874B6"/>
</svg>
