<svg width="27" height="15" viewBox="0 0 27 15" fill="none" xmlns="http://www.w3.org/2000/svg">
<path d="M0.685384 14.0004C0.890873 14.1893 1.16239 14.2908 1.44189 14.2832C1.7214 14.2757 1.98671 14.1597 2.18112 13.9601L13.065 2.8067L24.5657 13.3561C24.7711 13.545 25.0427 13.6465 25.3222 13.6389C25.6017 13.6314 25.867 13.5154 26.0614 13.3158C26.1562 13.2187 26.2305 13.1038 26.2798 12.9776C26.3292 12.8515 26.3526 12.7168 26.3488 12.5815C26.3449 12.4462 26.3138 12.3129 26.2574 12.1897C26.2009 12.0664 26.1202 11.9556 26.02 11.8639L13.7854 0.645632C13.5705 0.448601 13.2869 0.342736 12.9949 0.350613C12.7029 0.358491 12.4258 0.479487 12.2225 0.687801L0.646207 12.5485C0.551401 12.6455 0.477127 12.7605 0.42777 12.8866C0.378413 13.0127 0.354973 13.1474 0.358834 13.2827C0.362694 13.4181 0.393777 13.5513 0.450247 13.6745C0.506717 13.7978 0.587431 13.9086 0.687623 14.0004L0.685384 14.0004Z" fill="white" stroke="white" stroke-width="0.5"/>
</svg>
