<svg width="33" height="22" viewBox="0 0 33 22" fill="none" xmlns="http://www.w3.org/2000/svg">
<path d="M22.0895 10.6034L30.3323 3.49901V17.6267L22.0895 10.6034ZM11.4682 11.8065L14.3628 14.2992C14.817 14.682 15.4093 14.9133 16.0566 14.9133H16.0794H16.0968C16.7454 14.9133 17.3377 14.6807 17.7973 14.2952L17.7933 14.2978L20.6878 11.8052L29.4867 19.3017H2.67342L11.4682 11.8065ZM2.66136 1.81465H29.5028L16.61 12.9232C16.4651 13.037 16.2856 13.0988 16.1008 13.0987H16.0821H16.0646C15.8792 13.0989 15.6991 13.0366 15.5541 12.9219L15.5554 12.9232L2.66136 1.81465ZM1.82918 3.49768L10.0705 10.6021L1.82918 17.6214V3.49768ZM30.7745 0.252588C30.4529 0.0930589 30.075 0 29.6743 0H2.49117C2.10277 9.20418e-05 1.71971 0.0897495 1.37222 0.261894L1.38696 0.255247C0.970972 0.458795 0.620646 0.773689 0.375557 1.16436C0.130469 1.55503 0.000385064 2.00591 0 2.46606L0 18.6477C0.000709433 19.3025 0.263258 19.9304 0.730038 20.3935C1.19682 20.8565 1.8297 21.117 2.48983 21.1177H29.6703C30.3304 21.117 30.9633 20.8565 31.4301 20.3935C31.8968 19.9304 32.1594 19.3025 32.1601 18.6477V2.46606C32.1601 1.49958 31.5986 0.662047 30.7812 0.259236L30.7664 0.252588H30.7745Z" fill="white"/>
</svg>
