<svg width="27" height="26" viewBox="0 0 27 26" fill="none" xmlns="http://www.w3.org/2000/svg">
<path d="M21.2364 9.76882H19.2669C19.2661 8.99174 18.9546 8.24671 18.4007 7.69724C17.8468 7.14776 17.0958 6.83872 16.3125 6.83795V4.88403C17.6179 4.88558 18.8694 5.40073 19.7925 6.31647C20.7156 7.23221 21.2349 8.47377 21.2364 9.76882V9.76882Z" fill="white"/>
<path d="M25.1771 9.76957H23.2076C23.2055 7.95647 22.4785 6.21822 21.1862 4.93617C19.8939 3.65411 18.1417 2.93294 16.3141 2.93087V0.976958C18.6639 0.979544 20.9167 1.90674 22.5783 3.55511C24.2399 5.20349 25.1745 7.43842 25.1771 9.76957V9.76957ZM23.2076 25.4009H23.0401C3.68913 24.2969 0.941584 8.09898 0.557518 3.15557C0.497492 2.3806 0.750224 1.61371 1.26012 1.02358C1.77003 0.433457 2.49533 0.0684306 3.27651 0.00879359C3.35463 0.00293185 3.43309 9.15986e-07 3.51187 9.15986e-07H8.70168C9.09615 -0.000377912 9.48164 0.116757 9.80822 0.336232C10.1348 0.555708 10.3874 0.867411 10.5334 1.23097L12.0303 4.88479C12.1744 5.23996 12.2101 5.6293 12.1331 6.00447C12.0561 6.37963 11.8696 6.72408 11.597 6.99501L9.49936 9.09547C9.82568 10.9432 10.7169 12.6467 12.0523 13.9749C13.3876 15.3031 15.1023 16.1917 16.964 16.5203L19.101 14.4199C19.3782 14.1524 19.7287 13.9717 20.1087 13.9005C20.4887 13.8292 20.8815 13.8706 21.238 14.0193L24.9506 15.4945C25.3116 15.6439 25.6195 15.8965 25.8352 16.2201C26.051 16.5437 26.1647 16.9237 26.1619 17.3117V22.47C26.1619 23.2473 25.8507 23.9928 25.2966 24.5425C24.7426 25.0921 23.9911 25.4009 23.2076 25.4009ZM3.51187 1.95392C3.38255 1.95353 3.25441 1.97842 3.13479 2.02716C3.01516 2.0759 2.90638 2.14754 2.81466 2.23799C2.72294 2.32843 2.65007 2.43592 2.60022 2.5543C2.55038 2.67268 2.52452 2.79965 2.52413 2.92794C2.52413 2.9553 2.52512 2.98233 2.52709 3.00903C2.98009 8.79261 5.8852 22.47 23.1485 23.447C23.4091 23.4625 23.6653 23.3746 23.8607 23.2028C24.0561 23.0309 24.1747 22.7892 24.1904 22.5306L24.1923 22.47V17.3117L20.4797 15.8365L17.6534 18.6208L17.1807 18.5622C8.61305 17.4973 7.45101 8.99778 7.45101 8.90985L7.39192 8.44091L10.1887 5.63704L8.71153 1.95392H3.51187Z" fill="white"/>
</svg>
