<svg width="117" height="122" viewBox="0 0 117 122" fill="none" xmlns="http://www.w3.org/2000/svg">
<path d="M4.85979 99.6484C4.09894 99.6484 3.42993 99.4975 2.85274 99.1958C2.27555 98.8941 1.82954 98.4743 1.5147 97.9365C1.19987 97.3855 1.04246 96.7559 1.04246 96.0475V95.4769C1.04246 95.4113 1.06213 95.3588 1.10149 95.3195C1.15396 95.267 1.21299 95.2407 1.27858 95.2407H3.54143C3.60702 95.2407 3.65949 95.267 3.69885 95.3195C3.75132 95.3588 3.77755 95.4113 3.77755 95.4769V95.9098C3.77755 96.3164 3.8825 96.6444 4.09238 96.8936C4.30227 97.1429 4.56463 97.2675 4.87946 97.2675C5.19429 97.2675 5.45665 97.1494 5.66654 96.9133C5.87643 96.6772 5.98137 96.3689 5.98137 95.9885C5.98137 95.5949 5.85019 95.2604 5.58783 94.9849C5.32547 94.6963 4.81387 94.2766 4.05303 93.7256C3.39713 93.2534 2.86585 92.8336 2.4592 92.4663C2.05254 92.099 1.70491 91.6464 1.41632 91.1086C1.12772 90.5707 0.983426 89.9476 0.983426 89.2393C0.983426 88.1242 1.33105 87.2322 2.0263 86.5632C2.72156 85.8942 3.63981 85.5597 4.78108 85.5597C5.93546 85.5597 6.86028 85.9073 7.55553 86.6026C8.2639 87.2978 8.61808 88.2095 8.61808 89.3377V89.8099C8.61808 89.8755 8.59185 89.9345 8.53938 89.987C8.50002 90.0264 8.44755 90.046 8.38196 90.046H6.11911C6.05352 90.046 5.99449 90.0264 5.94202 89.987C5.90266 89.9345 5.88299 89.8755 5.88299 89.8099V89.2786C5.88299 88.872 5.77804 88.5506 5.56816 88.3145C5.37139 88.0652 5.10903 87.9406 4.78108 87.9406C4.46625 87.9406 4.21045 88.0587 4.01368 88.2948C3.81691 88.5178 3.71852 88.8326 3.71852 89.2393C3.71852 89.6328 3.84314 89.9804 4.09238 90.2822C4.34163 90.5839 4.83355 91.0036 5.56816 91.5415C6.38147 92.1449 6.99146 92.6368 7.39811 93.0172C7.81789 93.3846 8.13928 93.7978 8.36228 94.2569C8.59841 94.7029 8.71647 95.2407 8.71647 95.8704C8.71647 97.0248 8.36228 97.943 7.65391 98.6252C6.94554 99.3073 6.01417 99.6484 4.85979 99.6484ZM14.5475 91.0889C14.5475 91.1545 14.5212 91.2135 14.4687 91.266C14.4294 91.3054 14.3769 91.325 14.3113 91.325H13.2094C13.1438 91.325 13.111 91.3578 13.111 91.4234V96.1065C13.111 96.487 13.1832 96.7493 13.3275 96.8936C13.4718 97.0379 13.6882 97.1035 13.9768 97.0904H14.1146C14.1802 97.0904 14.2326 97.1166 14.272 97.1691C14.3245 97.2084 14.3507 97.2609 14.3507 97.3265V99.2548C14.3507 99.3204 14.3245 99.3795 14.272 99.4319C14.2326 99.4713 14.1802 99.491 14.1146 99.491H13.3275C12.3699 99.491 11.6484 99.3336 11.163 99.0187C10.6777 98.6908 10.435 98.0742 10.435 97.1691V91.4234C10.435 91.3578 10.4022 91.325 10.3366 91.325H9.68725C9.62166 91.325 9.56263 91.3054 9.51016 91.266C9.4708 91.2135 9.45113 91.1545 9.45113 91.0889V89.6131C9.45113 89.5475 9.4708 89.4951 9.51016 89.4557C9.56263 89.4032 9.62166 89.377 9.68725 89.377H10.3366C10.4022 89.377 10.435 89.3442 10.435 89.2786V87.0945C10.435 87.0289 10.4547 86.9764 10.494 86.9371C10.5465 86.8846 10.6055 86.8584 10.6711 86.8584H12.8749C12.9405 86.8584 12.993 86.8846 13.0323 86.9371C13.0848 86.9764 13.111 87.0289 13.111 87.0945V89.2786C13.111 89.3442 13.1438 89.377 13.2094 89.377H14.3113C14.3769 89.377 14.4294 89.4032 14.4687 89.4557C14.5212 89.4951 14.5475 89.5475 14.5475 89.6131V91.0889ZM19.3293 89.2196C20.4443 89.2196 21.3494 89.5213 22.0447 90.1247C22.7399 90.7282 23.0876 91.5218 23.0876 92.5056V99.2548C23.0876 99.3204 23.0613 99.3795 23.0089 99.4319C22.9695 99.4713 22.917 99.491 22.8514 99.491H20.5492C20.4836 99.491 20.4246 99.4713 20.3721 99.4319C20.3328 99.3795 20.3131 99.3204 20.3131 99.2548V98.822C20.3131 98.7826 20.3 98.7564 20.2738 98.7432C20.2475 98.7301 20.2213 98.7432 20.1951 98.7826C19.7622 99.3336 19.0931 99.6221 18.188 99.6484C17.4272 99.6484 16.7647 99.4385 16.2006 99.0187C15.6497 98.5989 15.3742 97.7987 15.3742 96.6181C15.3742 95.3982 15.7087 94.5586 16.3777 94.0995C17.0599 93.6404 18.0371 93.4108 19.3096 93.4108H20.2147C20.2803 93.4108 20.3131 93.378 20.3131 93.3124V92.8205C20.3131 92.4663 20.2147 92.1777 20.018 91.9547C19.8343 91.7186 19.5982 91.6005 19.3096 91.6005C19.0866 91.6005 18.8964 91.6727 18.739 91.817C18.5947 91.9481 18.5028 92.1383 18.4635 92.3876C18.4504 92.545 18.3651 92.6237 18.2077 92.6237L15.8464 92.604C15.689 92.604 15.6103 92.5253 15.6103 92.3679C15.6759 91.4103 16.0498 90.6495 16.7319 90.0854C17.414 89.5082 18.2798 89.2196 19.3293 89.2196ZM19.1325 97.5036C19.4342 97.5036 19.7031 97.4052 19.9393 97.2084C20.1885 96.9986 20.3131 96.7231 20.3131 96.382V95.4572C20.3131 95.3916 20.2803 95.3588 20.2147 95.3588H19.408C19.0538 95.3588 18.7652 95.4638 18.5422 95.6736C18.3323 95.8704 18.2274 96.1459 18.2274 96.5001C18.2274 96.828 18.3061 97.0773 18.4635 97.2478C18.634 97.4183 18.857 97.5036 19.1325 97.5036ZM29.0554 91.0889C29.0554 91.1545 29.0291 91.2135 28.9767 91.266C28.9373 91.3054 28.8848 91.325 28.8192 91.325H27.7173C27.6517 91.325 27.6189 91.3578 27.6189 91.4234V96.1065C27.6189 96.487 27.6911 96.7493 27.8354 96.8936C27.9797 97.0379 28.1961 97.1035 28.4847 97.0904H28.6225C28.6881 97.0904 28.7405 97.1166 28.7799 97.1691C28.8324 97.2084 28.8586 97.2609 28.8586 97.3265V99.2548C28.8586 99.3204 28.8324 99.3795 28.7799 99.4319C28.7405 99.4713 28.6881 99.491 28.6225 99.491H27.8354C26.8778 99.491 26.1563 99.3336 25.6709 99.0187C25.1856 98.6908 24.9429 98.0742 24.9429 97.1691V91.4234C24.9429 91.3578 24.9101 91.325 24.8445 91.325H24.1952C24.1296 91.325 24.0705 91.3054 24.0181 91.266C23.9787 91.2135 23.959 91.1545 23.959 91.0889V89.6131C23.959 89.5475 23.9787 89.4951 24.0181 89.4557C24.0705 89.4032 24.1296 89.377 24.1952 89.377H24.8445C24.9101 89.377 24.9429 89.3442 24.9429 89.2786V87.0945C24.9429 87.0289 24.9626 86.9764 25.0019 86.9371C25.0544 86.8846 25.1134 86.8584 25.179 86.8584H27.3828C27.4484 86.8584 27.5009 86.8846 27.5402 86.9371C27.5927 86.9764 27.6189 87.0289 27.6189 87.0945V89.2786C27.6189 89.3442 27.6517 89.377 27.7173 89.377H28.8192C28.8848 89.377 28.9373 89.4032 28.9767 89.4557C29.0291 89.4951 29.0554 89.5475 29.0554 89.6131V91.0889ZM37.4774 95.0637C37.4774 95.1292 37.4512 95.1883 37.3987 95.2407C37.3593 95.2801 37.3069 95.2998 37.2413 95.2998H32.9124C32.8468 95.2998 32.814 95.3326 32.814 95.3982V96.1262C32.814 96.4542 32.8992 96.7296 33.0698 96.9526C33.2534 97.1625 33.483 97.2675 33.7585 97.2675C34.0077 97.2675 34.211 97.1888 34.3685 97.0313C34.5259 96.8608 34.6308 96.6509 34.6833 96.4017C34.7226 96.2705 34.8079 96.2049 34.9391 96.2049L37.2019 96.323C37.2675 96.323 37.32 96.3492 37.3593 96.4017C37.4118 96.441 37.4315 96.5001 37.4184 96.5788C37.3266 97.5889 36.9724 98.3563 36.3558 98.881C35.7524 99.3926 34.8866 99.6484 33.7585 99.6484C32.591 99.6484 31.6793 99.3598 31.0234 98.7826C30.3675 98.1923 30.0395 97.379 30.0395 96.3427V92.5253C30.0395 91.5284 30.3675 90.7282 31.0234 90.1247C31.6924 89.5213 32.6041 89.2196 33.7585 89.2196C34.9128 89.2196 35.818 89.5213 36.4739 90.1247C37.1429 90.7282 37.4774 91.5284 37.4774 92.5253V95.0637ZM33.7585 91.6005C33.483 91.6005 33.2534 91.7055 33.0698 91.9153C32.8992 92.1252 32.814 92.3941 32.814 92.7221V93.4895C32.814 93.5551 32.8468 93.5879 32.9124 93.5879H34.6046C34.6702 93.5879 34.703 93.5551 34.703 93.4895V92.7221C34.703 92.3941 34.6111 92.1252 34.4275 91.9153C34.2569 91.7055 34.0339 91.6005 33.7585 91.6005ZM43.4503 89.2196C44.3423 89.2196 45.0113 89.5148 45.4573 90.1051C45.9033 90.6954 46.1264 91.5218 46.1264 92.5844V99.2548C46.1264 99.3204 46.1001 99.3795 46.0476 99.4319C46.0083 99.4713 45.9558 99.491 45.8902 99.491H43.588C43.5224 99.491 43.4634 99.4713 43.4109 99.4319C43.3716 99.3795 43.3519 99.3204 43.3519 99.2548V92.8008C43.3519 92.4204 43.2732 92.1252 43.1158 91.9153C42.9715 91.7055 42.755 91.6005 42.4664 91.6005C42.1647 91.6005 41.9286 91.712 41.7581 91.935C41.6007 92.1449 41.5219 92.4466 41.5219 92.8402V99.2548C41.5219 99.3204 41.4957 99.3795 41.4432 99.4319C41.4039 99.4713 41.3514 99.491 41.2858 99.491H38.9836C38.918 99.491 38.859 99.4713 38.8065 99.4319C38.7672 99.3795 38.7475 99.3204 38.7475 99.2548V89.6131C38.7475 89.5475 38.7672 89.4951 38.8065 89.4557C38.859 89.4032 38.918 89.377 38.9836 89.377H41.2858C41.3514 89.377 41.4039 89.4032 41.4432 89.4557C41.4957 89.4951 41.5219 89.5475 41.5219 89.6131V89.987C41.5219 90.0264 41.5351 90.046 41.5613 90.046C41.6007 90.046 41.6466 90.0198 41.699 89.9673C42.1188 89.4688 42.7026 89.2196 43.4503 89.2196ZM50.9328 99.6287C49.8177 99.6287 48.9257 99.3663 48.2567 98.8416C47.6008 98.3038 47.2728 97.5889 47.2728 96.6968V96.5591C47.2728 96.4935 47.2925 96.441 47.3319 96.4017C47.3843 96.3492 47.4434 96.323 47.509 96.323H49.6734C49.739 96.323 49.7915 96.3492 49.8308 96.4017C49.8833 96.441 49.9096 96.4935 49.9096 96.5591V96.6181C49.9096 96.8936 50.0079 97.1232 50.2047 97.3068C50.4015 97.4774 50.6442 97.5626 50.9328 97.5626C51.1951 97.5626 51.3984 97.4905 51.5427 97.3462C51.7002 97.1888 51.7789 96.992 51.7789 96.7559C51.7789 96.4673 51.6542 96.2443 51.405 96.0869C51.1558 95.9163 50.8737 95.7786 50.5589 95.6736C50.2572 95.5556 50.0473 95.4769 49.9292 95.4375C49.2077 95.1752 48.5978 94.8144 48.0993 94.3553C47.6139 93.883 47.3712 93.2075 47.3712 92.3286C47.3712 91.3709 47.6861 90.6167 48.3157 90.0657C48.9454 89.5148 49.7849 89.2393 50.8344 89.2393C51.9232 89.2393 52.7824 89.5279 53.4121 90.1051C54.0548 90.6823 54.3762 91.4628 54.3762 92.4466C54.3762 92.5122 54.35 92.5712 54.2975 92.6237C54.2582 92.6631 54.2057 92.6827 54.1401 92.6827H52.0347C51.9691 92.6827 51.91 92.6631 51.8576 92.6237C51.8182 92.5712 51.7985 92.5122 51.7985 92.4466V92.2892C51.7985 92.0268 51.7133 91.817 51.5427 91.6595C51.3853 91.489 51.1754 91.4037 50.9131 91.4037C50.6376 91.4037 50.4212 91.4956 50.2637 91.6792C50.1063 91.8498 50.0276 92.0531 50.0276 92.2892C50.0276 92.604 50.1588 92.8533 50.4212 93.0369C50.6966 93.2075 51.1098 93.3977 51.6608 93.6076C52.2249 93.8174 52.7037 94.0339 53.0972 94.2569C53.5039 94.4668 53.8515 94.7751 54.1401 95.1817C54.4287 95.5753 54.573 96.0737 54.573 96.6772C54.573 97.5823 54.2385 98.3038 53.5695 98.8416C52.9136 99.3663 52.0347 99.6287 50.9328 99.6287ZM1.55406 118.491C1.48847 118.491 1.42944 118.471 1.37697 118.432C1.33761 118.379 1.31793 118.32 1.31793 118.255V104.953C1.31793 104.888 1.33761 104.835 1.37697 104.796C1.42944 104.743 1.48847 104.717 1.55406 104.717H3.85626C3.92185 104.717 3.97432 104.743 4.01368 104.796C4.06615 104.835 4.09238 104.888 4.09238 104.953V109.912C4.09238 109.964 4.1055 109.997 4.13174 110.01C4.17109 110.01 4.19733 109.984 4.21045 109.931L6.74877 104.894C6.81436 104.776 6.90619 104.717 7.02425 104.717H9.46419C9.55602 104.717 9.61505 104.743 9.64129 104.796C9.68064 104.835 9.68064 104.901 9.64129 104.993L6.7291 110.66C6.71598 110.712 6.70942 110.751 6.70942 110.778L9.7987 118.215C9.81182 118.242 9.81838 118.281 9.81838 118.334C9.81838 118.438 9.75279 118.491 9.62161 118.491H7.16199C7.01769 118.491 6.92587 118.432 6.88651 118.314L4.84011 113.159C4.82699 113.119 4.80731 113.106 4.78108 113.119C4.75484 113.119 4.72861 113.132 4.70237 113.159L4.13174 114.182C4.1055 114.234 4.09238 114.274 4.09238 114.3V118.255C4.09238 118.32 4.06615 118.379 4.01368 118.432C3.97432 118.471 3.92185 118.491 3.85626 118.491H1.55406ZM15.3911 108.613C15.3911 108.548 15.4108 108.495 15.4501 108.456C15.5026 108.403 15.5616 108.377 15.6272 108.377H17.9294C17.995 108.377 18.0475 108.403 18.0868 108.456C18.1393 108.495 18.1656 108.548 18.1656 108.613V118.255C18.1656 118.32 18.1393 118.379 18.0868 118.432C18.0475 118.471 17.995 118.491 17.9294 118.491H15.6272C15.5616 118.491 15.5026 118.471 15.4501 118.432C15.4108 118.379 15.3911 118.32 15.3911 118.255V117.92C15.3911 117.881 15.378 117.855 15.3518 117.842C15.3255 117.829 15.2993 117.842 15.273 117.881C15.0763 118.156 14.827 118.353 14.5253 118.471C14.2367 118.576 13.8957 118.629 13.5021 118.629C12.715 118.629 12.0657 118.393 11.5541 117.92C11.0425 117.435 10.7867 116.694 10.7867 115.697V108.613C10.7867 108.548 10.8064 108.495 10.8457 108.456C10.8982 108.403 10.9572 108.377 11.0228 108.377H13.325C13.3906 108.377 13.4431 108.403 13.4824 108.456C13.5349 108.495 13.5611 108.548 13.5611 108.613V115.087C13.5611 115.467 13.6333 115.762 13.7776 115.972C13.935 116.169 14.158 116.267 14.4466 116.267C14.7352 116.267 14.9648 116.156 15.1353 115.933C15.3058 115.71 15.3911 115.408 15.3911 115.028V108.613ZM24.369 108.22C25.261 108.22 25.9301 108.515 26.3761 109.105C26.8221 109.695 27.0451 110.522 27.0451 111.584V118.255C27.0451 118.32 27.0189 118.379 26.9664 118.432C26.927 118.471 26.8746 118.491 26.809 118.491H24.5068C24.4412 118.491 24.3821 118.471 24.3297 118.432C24.2903 118.379 24.2706 118.32 24.2706 118.255V111.801C24.2706 111.42 24.1919 111.125 24.0345 110.915C23.8902 110.705 23.6738 110.601 23.3852 110.601C23.0835 110.601 22.8473 110.712 22.6768 110.935C22.5194 111.145 22.4407 111.447 22.4407 111.84V118.255C22.4407 118.32 22.4144 118.379 22.362 118.432C22.3226 118.471 22.2701 118.491 22.2046 118.491H19.9024C19.8368 118.491 19.7777 118.471 19.7253 118.432C19.6859 118.379 19.6662 118.32 19.6662 118.255V108.613C19.6662 108.548 19.6859 108.495 19.7253 108.456C19.7777 108.403 19.8368 108.377 19.9024 108.377H22.2046C22.2701 108.377 22.3226 108.403 22.362 108.456C22.4144 108.495 22.4407 108.548 22.4407 108.613V108.987C22.4407 109.026 22.4538 109.046 22.48 109.046C22.5194 109.046 22.5653 109.02 22.6178 108.967C23.0375 108.469 23.6213 108.22 24.369 108.22ZM31.8515 118.629C30.7365 118.629 29.8444 118.366 29.1754 117.842C28.5195 117.304 28.1916 116.589 28.1916 115.697V115.559C28.1916 115.494 28.2113 115.441 28.2506 115.402C28.3031 115.349 28.3621 115.323 28.4277 115.323H30.5922C30.6578 115.323 30.7102 115.349 30.7496 115.402C30.8021 115.441 30.8283 115.494 30.8283 115.559V115.618C30.8283 115.894 30.9267 116.123 31.1234 116.307C31.3202 116.477 31.5629 116.563 31.8515 116.563C32.1138 116.563 32.3172 116.49 32.4615 116.346C32.6189 116.189 32.6976 115.992 32.6976 115.756C32.6976 115.467 32.573 115.244 32.3237 115.087C32.0745 114.916 31.7925 114.779 31.4776 114.674C31.1759 114.556 30.966 114.477 30.848 114.438C30.1265 114.175 29.5165 113.814 29.018 113.355C28.5326 112.883 28.29 112.207 28.29 111.329C28.29 110.371 28.6048 109.617 29.2345 109.066C29.8641 108.515 30.7037 108.239 31.7531 108.239C32.8419 108.239 33.7011 108.528 34.3308 109.105C34.9736 109.682 35.295 110.463 35.295 111.447C35.295 111.512 35.2687 111.571 35.2162 111.624C35.1769 111.663 35.1244 111.683 35.0588 111.683H32.9534C32.8878 111.683 32.8288 111.663 32.7763 111.624C32.737 111.571 32.7173 111.512 32.7173 111.447V111.289C32.7173 111.027 32.632 110.817 32.4615 110.66C32.3041 110.489 32.0942 110.404 31.8318 110.404C31.5563 110.404 31.3399 110.496 31.1825 110.679C31.0251 110.85 30.9464 111.053 30.9464 111.289C30.9464 111.604 31.0775 111.853 31.3399 112.037C31.6154 112.207 32.0286 112.398 32.5795 112.608C33.1436 112.817 33.6224 113.034 34.016 113.257C34.4226 113.467 34.7702 113.775 35.0588 114.182C35.3474 114.575 35.4917 115.074 35.4917 115.677C35.4917 116.582 35.1572 117.304 34.4882 117.842C33.8323 118.366 32.9534 118.629 31.8515 118.629ZM41.1805 110.089C41.1805 110.154 41.1543 110.214 41.1018 110.266C41.0625 110.305 41.01 110.325 40.9444 110.325H39.8425C39.7769 110.325 39.7441 110.358 39.7441 110.423V115.107C39.7441 115.487 39.8163 115.749 39.9605 115.894C40.1048 116.038 40.3213 116.103 40.6099 116.09H40.7476C40.8132 116.09 40.8657 116.117 40.905 116.169C40.9575 116.208 40.9838 116.261 40.9838 116.327V118.255C40.9838 118.32 40.9575 118.379 40.905 118.432C40.8657 118.471 40.8132 118.491 40.7476 118.491H39.9605C39.0029 118.491 38.2814 118.334 37.7961 118.019C37.3107 117.691 37.068 117.074 37.068 116.169V110.423C37.068 110.358 37.0352 110.325 36.9697 110.325H36.3203C36.2547 110.325 36.1957 110.305 36.1432 110.266C36.1039 110.214 36.0842 110.154 36.0842 110.089V108.613C36.0842 108.548 36.1039 108.495 36.1432 108.456C36.1957 108.403 36.2547 108.377 36.3203 108.377H36.9697C37.0352 108.377 37.068 108.344 37.068 108.279V106.094C37.068 106.029 37.0877 105.976 37.1271 105.937C37.1795 105.885 37.2386 105.858 37.3042 105.858H39.508C39.5736 105.858 39.626 105.885 39.6654 105.937C39.7179 105.976 39.7441 106.029 39.7441 106.094V108.279C39.7441 108.344 39.7769 108.377 39.8425 108.377H40.9444C41.01 108.377 41.0625 108.403 41.1018 108.456C41.1543 108.495 41.1805 108.548 41.1805 108.613V110.089ZM46.7691 108.377C46.8347 108.377 46.8871 108.403 46.9265 108.456C46.979 108.495 47.0052 108.548 47.0052 108.613V110.089C47.0052 110.154 46.979 110.214 46.9265 110.266C46.8871 110.305 46.8347 110.325 46.7691 110.325H45.6868C45.6213 110.325 45.5885 110.358 45.5885 110.423V118.255C45.5885 118.32 45.5622 118.379 45.5098 118.432C45.4704 118.471 45.4179 118.491 45.3523 118.491H43.0698C43.0042 118.491 42.9452 118.471 42.8927 118.432C42.8534 118.379 42.8337 118.32 42.8337 118.255V110.423C42.8337 110.358 42.8009 110.325 42.7353 110.325H42.145C42.0794 110.325 42.0204 110.305 41.9679 110.266C41.9285 110.214 41.9089 110.154 41.9089 110.089V108.613C41.9089 108.548 41.9285 108.495 41.9679 108.456C42.0204 108.403 42.0794 108.377 42.145 108.377H42.7353C42.8009 108.377 42.8337 108.344 42.8337 108.279V107.747C42.8337 106.567 43.1288 105.753 43.7192 105.307C44.3226 104.848 45.2736 104.632 46.5723 104.658H46.651C46.7166 104.658 46.7691 104.684 46.8084 104.737C46.8609 104.776 46.8871 104.829 46.8871 104.894L46.8675 106.468C46.8675 106.534 46.8412 106.593 46.7888 106.645C46.7494 106.685 46.6969 106.704 46.6313 106.704H46.592C45.923 106.718 45.5885 107.124 45.5885 107.924V108.279C45.5885 108.344 45.6213 108.377 45.6868 108.377H46.7691ZM51.7641 118.648C50.5966 118.648 49.6784 118.353 49.0093 117.763C48.3534 117.173 48.0255 116.366 48.0255 115.343V111.525C48.0255 110.528 48.36 109.728 49.029 109.125C49.698 108.521 50.6097 108.22 51.7641 108.22C52.9316 108.22 53.8499 108.521 54.5189 109.125C55.1879 109.728 55.5224 110.528 55.5224 111.525V115.343C55.5224 116.366 55.1879 117.173 54.5189 117.763C53.863 118.353 52.9447 118.648 51.7641 118.648ZM51.7641 116.248C52.0527 116.248 52.2888 116.143 52.4725 115.933C52.6561 115.723 52.748 115.454 52.748 115.126V111.722C52.748 111.394 52.6561 111.125 52.4725 110.915C52.2888 110.705 52.0527 110.601 51.7641 110.601C51.4755 110.601 51.2394 110.705 51.0557 110.915C50.8852 111.125 50.7999 111.394 50.7999 111.722V115.126C50.7999 115.454 50.8852 115.723 51.0557 115.933C51.2394 116.143 51.4755 116.248 51.7641 116.248ZM61.5708 108.22C62.4628 108.22 63.1318 108.515 63.5778 109.105C64.0238 109.695 64.2468 110.522 64.2468 111.584V118.255C64.2468 118.32 64.2206 118.379 64.1681 118.432C64.1288 118.471 64.0763 118.491 64.0107 118.491H61.7085C61.6429 118.491 61.5839 118.471 61.5314 118.432C61.4921 118.379 61.4724 118.32 61.4724 118.255V111.801C61.4724 111.42 61.3937 111.125 61.2363 110.915C61.092 110.705 60.8755 110.601 60.5869 110.601C60.2852 110.601 60.0491 110.712 59.8785 110.935C59.7211 111.145 59.6424 111.447 59.6424 111.84V118.255C59.6424 118.32 59.6162 118.379 59.5637 118.432C59.5244 118.471 59.4719 118.491 59.4063 118.491H57.1041C57.0385 118.491 56.9795 118.471 56.927 118.432C56.8876 118.379 56.868 118.32 56.868 118.255V108.613C56.868 108.548 56.8876 108.495 56.927 108.456C56.9795 108.403 57.0385 108.377 57.1041 108.377H59.4063C59.4719 108.377 59.5244 108.403 59.5637 108.456C59.6162 108.495 59.6424 108.548 59.6424 108.613V108.987C59.6424 109.026 59.6555 109.046 59.6818 109.046C59.7211 109.046 59.767 109.02 59.8195 108.967C60.2393 108.469 60.823 108.22 61.5708 108.22ZM70.1551 104.953C70.1551 104.888 70.1748 104.835 70.2142 104.796C70.2666 104.743 70.3257 104.717 70.3913 104.717H72.6935C72.7591 104.717 72.8115 104.743 72.8509 104.796C72.9034 104.835 72.9296 104.888 72.9296 104.953V118.255C72.9296 118.32 72.9034 118.379 72.8509 118.432C72.8115 118.471 72.7591 118.491 72.6935 118.491H70.3913C70.3257 118.491 70.2666 118.471 70.2142 118.432C70.1748 118.379 70.1551 118.32 70.1551 118.255V117.94C70.1551 117.901 70.142 117.881 70.1158 117.881C70.0895 117.868 70.0633 117.874 70.0371 117.901C69.5911 118.399 69.0008 118.648 68.2661 118.648C67.361 118.648 66.6789 118.36 66.2197 117.783C65.7606 117.192 65.5311 116.379 65.5311 115.343V111.525C65.5311 110.463 65.7606 109.649 66.2197 109.085C66.692 108.508 67.3741 108.22 68.2661 108.22C68.5547 108.22 68.8565 108.279 69.1713 108.397C69.4861 108.502 69.7747 108.698 70.0371 108.987C70.0633 109.013 70.0895 109.026 70.1158 109.026C70.142 109.013 70.1551 108.987 70.1551 108.948V104.953ZM69.2303 116.267C69.4664 116.267 69.6698 116.189 69.8403 116.031C70.0108 115.874 70.1158 115.664 70.1551 115.402V111.466C70.1158 111.204 70.0108 110.994 69.8403 110.837C69.6698 110.679 69.4664 110.601 69.2303 110.601C68.9548 110.601 68.7318 110.705 68.5613 110.915C68.3908 111.125 68.3055 111.394 68.3055 111.722V115.146C68.3055 115.474 68.3908 115.743 68.5613 115.953C68.7318 116.163 68.9548 116.267 69.2303 116.267Z" fill="black"/>
<path d="M4.44407 0.858749C4.43344 1.05594 4.44407 4.89294 4.44407 9.38724C4.45471 13.8815 4.45471 17.6199 4.45471 17.6857C4.45471 17.7514 4.45471 18.6223 4.45471 19.6165C4.45471 20.6107 4.45471 21.4816 4.45471 21.5473C4.45471 21.6131 4.44407 22.0896 4.44407 22.599C4.43344 23.1084 4.46534 23.5603 4.49724 23.6014C4.52914 23.6507 4.5185 23.6836 4.47597 23.6836C4.42281 23.6836 4.39091 23.7822 4.40154 23.9054C4.41218 24.0369 4.43344 24.2423 4.43344 24.3819C4.45471 24.9571 4.46534 25.6226 4.45471 25.7376C4.44407 25.9595 4.43344 27.4466 4.45471 27.5123C4.46534 27.5534 4.46534 27.6191 4.45471 27.6684C4.43344 27.7588 4.43344 29.5582 4.45471 29.6568C4.46534 29.6897 4.46534 29.7554 4.45471 29.8047C4.44407 29.8458 4.43344 30.2155 4.44407 30.6263C4.45471 31.0289 4.45471 31.4233 4.45471 31.489C4.44407 31.5547 4.45471 31.8177 4.45471 32.0642C4.46534 32.3106 4.46534 32.5736 4.45471 32.6393C4.44407 32.705 4.44407 32.894 4.45471 33.0501C4.46534 33.2062 4.46534 33.3952 4.45471 33.4609C4.45471 33.5266 4.45471 33.7896 4.45471 34.0361C4.46534 34.2825 4.46534 34.5455 4.45471 34.6112C4.44407 34.6769 4.44407 34.8659 4.45471 35.022C4.46534 35.1781 4.46534 35.3671 4.45471 35.4328C4.45471 35.4986 4.45471 35.7615 4.45471 36.008C4.46534 36.2545 4.45471 36.5174 4.45471 36.5831C4.44407 36.6488 4.44407 36.8132 4.45471 36.9528C4.46534 37.0843 4.46534 37.2568 4.45471 37.3226C4.42281 37.8731 4.44407 38.2592 4.49724 38.3907C4.53977 38.4811 4.5185 38.555 4.46534 38.555C4.41218 38.555 4.40154 38.7111 4.43344 38.9001C4.47597 39.0973 4.47597 39.3602 4.44407 39.4999C4.41218 39.6313 4.41218 39.9025 4.45471 40.0997C4.48661 40.2886 4.48661 40.4694 4.44407 40.4858C4.40154 40.5023 4.40154 40.683 4.43344 40.872C4.47597 41.0692 4.47597 41.3321 4.44407 41.4718C4.41218 41.6032 4.41218 41.8744 4.45471 42.0716C4.48661 42.2606 4.47597 42.4413 4.42281 42.466C4.38028 42.4906 4.35901 42.5399 4.39091 42.581C4.42281 42.6221 4.44407 42.8686 4.44407 43.1315C4.43344 43.8381 4.44407 44.1832 4.49724 44.3803C4.5185 44.4707 4.48661 44.5529 4.43344 44.5529C4.36964 44.5529 4.35901 44.5858 4.39091 44.6351C4.42281 44.6761 4.45471 44.9144 4.44407 45.1445C4.43344 45.695 4.44407 46.0154 4.48661 46.303C4.50787 46.4262 4.48661 46.5248 4.44407 46.5248C4.40154 46.5248 4.40154 46.6563 4.44407 46.8041C4.48661 46.9603 4.50787 47.1082 4.47597 47.1328C4.42281 47.1739 4.42281 47.938 4.48661 48.2749C4.50787 48.3981 4.48661 48.4967 4.44407 48.4967C4.40154 48.4967 4.40154 48.6282 4.44407 48.7761C4.48661 48.9322 4.50787 49.0801 4.47597 49.1047C4.42281 49.1376 4.42281 49.8524 4.47597 50.2796C4.49724 50.4275 4.46534 50.5508 4.41218 50.5508C4.36964 50.5508 4.35901 50.5919 4.40154 50.6411C4.43344 50.6904 4.46534 50.978 4.44407 51.282C4.42281 51.8982 4.42281 51.89 4.47597 52.2515C4.49724 52.3994 4.47597 52.5227 4.44407 52.5227C4.40154 52.5227 4.40154 52.6952 4.44407 52.9088C4.47597 53.1307 4.47597 53.4429 4.43344 53.6154C4.40154 53.788 4.40154 53.9359 4.43344 53.9605C4.50787 53.9934 4.48661 54.626 4.40154 54.7986C4.36964 54.8561 4.38028 54.9054 4.42281 54.9054C4.46534 54.9054 4.47597 55.1272 4.44407 55.4066C4.41218 55.6777 4.41218 55.916 4.44407 55.9324C4.49724 55.9571 4.49724 56.2036 4.43344 56.713C4.42281 56.828 4.44407 57.0005 4.48661 57.0991C4.53977 57.2224 4.5185 57.2881 4.44407 57.2881C4.38028 57.2881 4.35901 57.321 4.39091 57.3703C4.44407 57.436 4.47597 58.4137 4.42281 58.767C4.42281 58.8328 4.44407 58.9725 4.48661 59.071C4.53977 59.1943 4.5185 59.26 4.44407 59.26C4.38028 59.26 4.34838 59.2929 4.39091 59.3422C4.44407 59.4079 4.47597 60.4021 4.42281 60.7389C4.42281 60.8047 4.44407 60.9444 4.48661 61.0429C4.53977 61.1662 4.5185 61.2319 4.44407 61.2319C4.38028 61.2319 4.34838 61.2648 4.39091 61.3141C4.44407 61.3798 4.47597 62.374 4.42281 62.7109C4.42281 62.7766 4.44407 62.9163 4.48661 63.0149C4.53977 63.1381 4.5185 63.2038 4.44407 63.2038C4.38028 63.2038 4.34838 63.2367 4.39091 63.286C4.44407 63.3517 4.46534 64.2802 4.43344 64.6828C4.42281 64.7485 4.44407 64.9046 4.47597 65.0278C4.50787 65.1593 4.48661 65.2579 4.43344 65.2579C4.36964 65.2579 4.35901 65.2908 4.39091 65.3401C4.47597 65.4469 4.49724 66.5561 4.41218 66.6218C4.38028 66.6465 4.40154 66.7615 4.45471 66.8765C4.5185 67.0162 4.5185 67.123 4.44407 67.1887C4.39091 67.238 4.36964 67.3038 4.39091 67.3284C4.44407 67.3613 4.45471 67.6242 4.44407 68.5608C4.44407 68.643 4.45471 68.832 4.46534 68.9717C4.48661 69.1195 4.46534 69.325 4.42281 69.4236C4.38028 69.5221 4.38028 69.6207 4.43344 69.6454C4.50787 69.6865 4.48661 70.3027 4.39091 70.4999C4.36964 70.5492 4.38028 70.5985 4.42281 70.5985C4.48661 70.5985 4.50787 71.0011 4.44407 71.149C4.42281 71.2065 4.43344 71.3462 4.48661 71.872C4.49724 71.9624 4.47597 72.1596 4.43344 72.2992C4.39091 72.4471 4.39091 72.5704 4.43344 72.5704C4.47597 72.5704 4.48661 72.7101 4.47597 72.8744C4.44407 73.1866 4.44407 73.5317 4.48661 73.8439C4.49724 73.9343 4.47597 74.1315 4.43344 74.2712C4.39091 74.419 4.39091 74.5423 4.43344 74.5423C4.47597 74.5423 4.48661 74.682 4.47597 74.8545C4.43344 75.2078 4.43344 75.2571 4.45471 75.8733C4.45471 76.128 4.43344 76.3827 4.39091 76.4238C4.35901 76.4731 4.36964 76.5142 4.42281 76.5142C4.5185 76.5142 4.49724 77.1879 4.40154 77.3933C4.36964 77.4509 4.38028 77.5001 4.42281 77.5001C4.5185 77.5001 4.50787 77.8452 4.41218 77.9685C4.36964 78.0096 4.36964 78.0753 4.41218 78.1082C4.49724 78.1739 4.48661 79.2666 4.40154 79.3817C4.35901 79.431 4.36964 79.4721 4.41218 79.4721C4.5185 79.4721 4.50787 79.9075 4.39091 80.039C4.35901 80.0883 4.35901 80.1294 4.41218 80.1294C4.45471 80.1294 4.48661 80.2937 4.47597 80.4991C4.47597 80.7045 4.49724 80.8688 4.52914 80.8688C4.57167 80.877 9.93061 80.8853 16.4379 80.8935C24.5295 80.9099 28.2616 80.8853 28.2722 80.8277C28.336 80.4498 28.2935 78.1328 28.2297 78.0999C28.1872 78.0835 28.1872 78.0178 28.2297 77.9685C28.336 77.8288 28.3467 77.0072 28.2403 77.0072C28.1872 77.0072 28.1765 76.9579 28.2297 76.9004C28.336 76.7689 28.3467 75.3639 28.2297 75.3639C28.1872 75.3639 28.1765 75.3146 28.2297 75.2653C28.336 75.1256 28.3467 74.7806 28.2297 74.5998C28.1872 74.5259 28.1872 74.4601 28.2297 74.4601C28.2722 74.4601 28.3148 74.0164 28.3148 73.4742C28.3148 72.9319 28.2722 72.4882 28.2297 72.4882C28.1765 72.4882 28.1765 72.4389 28.2191 72.3896C28.336 72.2417 28.3467 72.0035 28.2616 71.6912C28.2084 71.5433 28.2084 71.4037 28.251 71.3872C28.2829 71.3626 28.3041 71.1572 28.2935 70.9107C28.251 70.3109 28.2403 69.9905 28.2616 69.9412C28.3254 69.8179 28.3041 69.2839 28.2403 69.2839C28.2084 69.2839 28.2084 69.1688 28.2616 69.0374C28.3786 68.7334 28.3679 68.7087 28.251 68.5198C28.1765 68.4212 28.1872 68.3801 28.2829 68.3801C28.3786 68.3801 28.3786 68.3554 28.2935 68.2897C28.2191 68.2322 28.2084 68.1172 28.2616 67.9611C28.3148 67.8296 28.3148 67.7063 28.2616 67.6817C28.2191 67.6571 28.2191 67.5009 28.2616 67.3366C28.3148 67.1723 28.3254 66.9998 28.2935 66.9587C28.1978 66.8354 28.1765 66.4903 28.2722 66.441C28.3254 66.4164 28.3254 66.3342 28.2616 66.2521C28.2084 66.1699 28.1978 66.0795 28.2297 66.0467C28.2722 66.022 28.2829 65.7673 28.2722 65.4797C28.251 65.0196 28.251 64.5184 28.2722 64.2473C28.2722 64.198 28.2616 64.009 28.2403 63.8365C28.2084 63.6722 28.2403 63.5325 28.2829 63.5325C28.336 63.5325 28.3467 63.4914 28.3148 63.4503C28.2722 63.401 28.2403 61.9796 28.2297 60.2953C28.2297 58.0029 28.2616 57.1402 28.3679 56.8527C28.4423 56.639 28.5487 56.4665 28.5912 56.4665C28.6444 56.4665 28.6763 56.4418 28.6656 56.4008C28.6337 56.335 29.2079 55.1601 29.3249 55.0286C29.3674 54.9793 29.4525 54.8314 29.5163 54.7C29.7183 54.2727 30.3137 53.1225 30.9517 51.9475C31.0155 51.8325 31.058 51.7175 31.0474 51.6764C31.0368 51.6435 31.0687 51.6189 31.1112 51.6189C31.1643 51.6189 31.2069 51.5696 31.2069 51.5121C31.2175 51.4053 31.9193 50.0742 32.015 50.0085C32.0575 49.9674 32.2702 50.5919 32.6955 52.0297C32.7805 52.3255 32.8656 52.6213 32.8869 52.687C32.9081 52.7527 32.9294 52.8102 32.94 52.8102C32.9507 52.8102 32.9719 52.876 32.9932 52.9664C33.0145 53.0485 33.0889 53.3032 33.1633 53.5415C33.2377 53.7715 33.3122 53.977 33.3122 54.0016C33.376 54.1906 33.5142 54.7082 33.5248 54.7575C33.5248 54.7822 33.5567 54.8314 33.5993 54.8643C33.6418 54.8972 33.6418 54.9711 33.6099 55.0369C33.578 55.1026 33.5993 55.1519 33.6418 55.1519C33.695 55.1519 33.7481 55.234 33.7588 55.3409C33.7694 55.5052 35.0453 59.6544 35.2899 60.3281C35.343 60.4842 35.4068 60.6897 35.4175 60.78C35.4281 60.8704 35.4813 60.9937 35.5344 61.0512C35.577 61.1087 35.5876 61.1826 35.5557 61.2073C35.5238 61.2319 35.5451 61.3059 35.6089 61.3716C35.6727 61.4291 35.7046 61.4784 35.6727 61.4784C35.6408 61.4784 35.662 61.6017 35.7152 61.7413C35.779 61.8892 35.8428 62.1028 35.8747 62.2179C35.9066 62.3329 35.9916 62.6287 36.0767 62.8834C36.1618 63.1299 36.2468 63.4092 36.2681 63.4996C36.2894 63.5818 36.3425 63.7461 36.3744 63.8611C36.6084 64.5349 37.0018 65.8248 37.0443 66.0384C37.0762 66.1699 37.1187 66.3424 37.1506 66.4082C37.2038 66.515 37.6291 67.8296 37.778 68.3144C37.7992 68.4212 37.8843 68.6677 37.9481 68.8731C38.0119 69.0785 38.065 69.325 38.0757 69.4236C38.0863 69.5304 38.1288 69.6125 38.1607 69.6125C38.1926 69.6125 38.2245 69.6618 38.2352 69.7111C38.2458 69.8672 38.3309 70.1712 38.6392 71.1161C38.7881 71.5762 38.9263 72.0445 38.9582 72.1596C38.9795 72.2746 39.0326 72.4225 39.0752 72.4882C39.1071 72.554 39.1496 72.6854 39.1602 72.7758C39.1815 72.8662 39.341 73.3838 39.5217 73.9261C39.6919 74.4683 39.862 75.0024 39.8939 75.1174C39.9152 75.2325 39.979 75.4132 40.0428 75.5282C40.0959 75.6433 40.1172 75.7829 40.0959 75.8405C40.064 75.898 40.0853 75.9884 40.1491 76.0459C40.2022 76.1034 40.3086 76.3827 40.3724 76.6785C40.4468 76.9743 40.5319 77.2701 40.5638 77.3358C40.6063 77.4016 40.6488 77.533 40.6701 77.6234C40.6914 77.7138 40.8934 78.3793 41.1167 79.1023C41.3506 79.8254 41.5632 80.5402 41.6058 80.6881L41.6802 80.951L50.8351 80.9592C55.875 80.9592 61.2978 80.9592 62.8714 80.9674C66.5291 80.9674 66.359 80.9756 66.2633 80.8524C66.2101 80.7949 66.1676 80.6963 66.157 80.6223C66.1463 80.5566 65.8699 79.6857 65.5403 78.6915C65.2106 77.6973 64.9129 76.7935 64.881 76.6785C64.8491 76.5635 64.7747 76.3252 64.7109 76.1445C64.6577 75.9637 64.6046 75.8076 64.6046 75.7994C64.6152 75.7829 64.562 75.6597 64.5089 75.5118C64.4451 75.3639 64.3706 75.1256 64.3387 74.9942C64.3068 74.8545 64.243 74.6902 64.1899 74.6162C64.1474 74.5423 64.1261 74.4601 64.158 74.4437C64.1793 74.419 64.158 74.304 64.0942 74.1808C64.041 74.0575 63.9666 73.8768 63.9453 73.7782C63.9134 73.6796 63.7433 73.1537 63.5625 72.6115C63.3818 72.0692 63.2223 71.5516 63.1904 71.4612C63.1691 71.3708 63.0734 71.0915 62.9884 70.8285C62.9033 70.5738 62.797 70.278 62.7757 70.1712C62.7438 70.0726 62.6694 69.8344 62.6056 69.6536C62.478 69.2921 62.4142 69.0867 62.3504 68.8073C62.3185 68.7087 62.276 68.5937 62.2441 68.5608C62.2122 68.5198 62.159 68.3637 62.1271 68.2075C62.0952 68.0514 62.0102 67.7803 61.9464 67.5995C61.8188 67.238 61.7975 67.1969 61.7231 66.9012C61.6912 66.7861 61.6167 66.5725 61.5529 66.4246C61.4998 66.2849 61.4785 66.1617 61.5104 66.1617C61.5423 66.1617 61.5104 66.1042 61.436 66.0384C61.3616 65.9727 61.3297 65.9152 61.3616 65.9152C61.3935 65.9152 61.3403 65.7016 61.2552 65.4387C61.1702 65.184 61.0745 64.9128 61.0532 64.8471C61.0319 64.7814 60.8937 64.3541 60.7449 63.9022C60.5854 63.4503 60.4471 63.0231 60.4259 62.9573C60.4152 62.8916 60.3408 62.6698 60.2664 62.4644C60.1919 62.259 60.1175 62.0289 60.0963 61.9467C60.075 61.8646 60.0325 61.7167 59.9899 61.6181C59.9474 61.5195 59.8942 61.3798 59.8836 61.3141C59.8623 61.1908 59.8517 61.1498 59.6284 60.4925C59.5646 60.2871 59.4689 59.9913 59.4158 59.8352C59.2563 59.3093 59.2244 59.2272 58.9904 58.5206C58.7246 57.6989 58.6715 57.551 58.6183 57.321C58.5864 57.2224 58.395 56.6555 58.193 56.0475C57.991 55.4395 57.7039 54.5603 57.555 54.0838C57.4061 53.6072 57.2148 53.0157 57.1191 52.7692C57.034 52.5227 56.9383 52.2433 56.9277 52.1529C56.9064 52.0626 56.8851 51.9886 56.8639 51.9886C56.8532 51.9886 56.832 51.9147 56.8107 51.8243C56.7682 51.6271 56.715 51.4463 56.5449 50.9616C56.4705 50.7562 56.4067 50.5343 56.3854 50.4686C56.3641 50.4029 56.3003 50.181 56.2259 49.9756C56.1515 49.7702 56.077 49.5402 56.0558 49.4662C56.0345 49.3841 55.992 49.2526 55.9707 49.1787C55.9388 49.0965 55.7687 48.5706 55.5773 48.0037C55.3965 47.4368 55.2052 46.8452 55.1626 46.6891C55.1095 46.533 54.9181 45.9414 54.7373 45.3745C54.5459 44.8076 54.3758 44.2735 54.3652 44.1832C54.3439 44.0928 54.3226 44.0188 54.312 44.0188C54.2907 44.0188 54.2269 43.8134 54.1419 43.4848C54.11 43.3287 54.0462 43.1808 54.0143 43.1561C53.9717 43.1315 53.9292 43.0411 53.9186 42.9507C53.9186 42.8603 53.8335 42.5563 53.7272 42.277C53.6315 41.9894 53.5358 41.6854 53.5039 41.595C53.3976 41.2171 53.3763 41.1267 53.2593 40.8145C53.1956 40.6337 53.1424 40.4612 53.1424 40.4283C53.1318 40.3955 53.0786 40.2476 53.0254 40.0997C52.9616 39.9518 52.8978 39.7546 52.8766 39.6642C52.8021 39.4095 52.7383 39.2041 52.6107 38.8426C52.5469 38.6618 52.4725 38.4235 52.4406 38.3085C52.4087 38.1935 52.3662 38.0374 52.3343 37.9634C52.3024 37.8895 52.2599 37.7498 52.2386 37.6594C52.1854 37.4787 52.1216 37.2979 52.0153 36.9693C51.9834 36.8707 51.9515 36.7392 51.9515 36.6817C51.9409 36.6324 51.8983 36.5831 51.8452 36.5831C51.792 36.5831 51.7708 36.5585 51.8027 36.5174C51.8239 36.4845 51.6538 35.8847 51.4305 35.1863C51.1966 34.488 50.9839 33.8224 50.952 33.7074C50.9201 33.5924 50.8563 33.387 50.7925 33.2473C50.7394 33.1076 50.6756 32.9186 50.6543 32.8283C50.6224 32.7379 50.5586 32.5243 50.5054 32.3599C50.4417 32.1956 50.4204 32.0642 50.4523 32.0642C50.4842 32.0642 50.4523 32.0066 50.3779 31.9409C50.3034 31.8752 50.2715 31.8177 50.3034 31.8177C50.3247 31.8177 50.2715 31.5712 50.1652 31.2672C49.9951 30.7495 49.9951 30.6838 50.1546 30.3387C50.2503 30.1333 50.3779 29.9444 50.431 29.9115C50.4948 29.8786 50.4948 29.8458 50.4523 29.8458C50.3991 29.8458 50.4417 29.7472 50.5267 29.6157C50.6118 29.4925 50.7606 29.2295 50.8563 29.0241C50.9627 28.8187 51.0903 28.564 51.154 28.449C51.2178 28.334 51.271 28.2272 51.2816 28.2025C51.2923 28.1779 51.3773 28.0217 51.473 27.841C51.5687 27.6684 51.6538 27.5041 51.6538 27.4877C51.6538 27.463 51.7176 27.3316 51.8027 27.1919C52.0472 26.7729 52.632 25.6226 52.6639 25.5322C52.6745 25.4911 52.8128 25.2364 52.9616 24.9653C53.1211 24.7024 53.2487 24.4641 53.2487 24.4395C53.2487 24.3902 54.0355 22.8701 54.2695 22.4758C54.3545 22.3361 54.4183 22.1964 54.4183 22.1718C54.4183 22.1389 54.4928 21.9828 54.5885 21.8102C54.6948 21.6459 54.7798 21.4652 54.8011 21.4241C54.8117 21.3748 55.3008 20.4381 55.8857 19.3289C56.4598 18.2197 56.9702 17.242 57.0234 17.1516C57.0659 17.0612 57.1191 16.9462 57.1403 16.9051C57.151 16.8558 57.2573 16.6586 57.3742 16.4532C57.4912 16.2478 58.2142 14.8593 58.9904 13.3721C59.756 11.8768 60.4471 10.5457 60.5216 10.4143C60.9469 9.64194 61.2978 8.9107 61.3084 8.77924C61.3084 8.73815 61.3509 8.68064 61.4041 8.65599C61.5423 8.58205 61.9676 7.68647 61.8932 7.62895C61.8507 7.60431 61.8826 7.57966 61.9464 7.57966C62.0208 7.57966 62.074 7.50571 62.074 7.41533C62.074 7.32495 62.1271 7.25101 62.2015 7.25101C62.2653 7.25101 62.2972 7.22636 62.2547 7.20171C62.2228 7.16885 62.276 7.01273 62.3823 6.84841C62.4993 6.68408 62.5843 6.52798 62.595 6.49511C62.6269 6.35543 63.2436 5.15585 63.637 4.46569C63.722 4.31779 63.8071 4.14526 63.8177 4.09595C63.8284 4.04666 63.9241 3.86591 64.0198 3.68514C64.1155 3.5126 64.2005 3.34827 64.2005 3.33184C64.2005 3.3072 64.2643 3.17574 64.3494 3.03606C64.4344 2.88817 64.7003 2.38697 64.9448 1.91043C65.1894 1.43388 65.4339 0.981987 65.4871 0.908043C65.5403 0.825882 65.5828 0.727287 65.5828 0.686203C65.5828 0.628693 61.7231 0.604042 54.9819 0.595825C42.1055 0.579391 41.1167 0.579391 40.8934 0.587608C40.7233 0.595825 40.4574 1.03129 40.5638 1.12167C40.6063 1.14632 40.5638 1.17097 40.4893 1.17097C40.4149 1.17097 40.383 1.19561 40.4149 1.22848C40.4574 1.25313 40.4362 1.32707 40.3724 1.39281C40.3086 1.45032 40.2767 1.49962 40.3192 1.49962C40.3617 1.49962 40.3192 1.60643 40.2341 1.73788C40.1491 1.86113 40.0534 2.05832 40.0215 2.16513C39.979 2.32946 38.82 4.86829 38.6073 5.2791C38.5648 5.34483 38.5329 5.41878 38.5223 5.44343C38.4585 5.6324 38.3309 5.91997 38.2564 6.05965C38.1395 6.2897 37.6823 7.27566 37.6504 7.37425C37.6291 7.46463 36.8104 9.26399 36.6934 9.4694C36.6615 9.53513 36.619 9.62551 36.5977 9.6748C36.5127 9.91308 35.056 13.1503 34.9603 13.29C34.8752 13.4379 34.2479 14.8018 34.1734 15.0154C34.1522 15.0565 34.1096 15.1551 34.0777 15.2208C33.982 15.4016 33.6843 16.0671 33.6312 16.2067C33.5886 16.3218 32.8337 17.9815 32.6955 18.2608C32.419 18.8031 31.6641 20.5449 31.6641 20.6271C31.6641 20.6846 31.6109 20.7257 31.5365 20.7257C31.4727 20.7257 31.4408 20.7503 31.4833 20.775C31.5152 20.8079 31.4727 20.964 31.3876 21.1283C31.2919 21.2926 31.2069 21.4569 31.1962 21.5062C31.1856 21.5473 31.0793 21.7938 30.973 22.0403C30.856 22.2868 30.7603 22.5168 30.7497 22.5497C30.739 22.5908 30.7284 22.6237 30.7071 22.6319C30.6965 22.6483 30.6752 22.7305 30.654 22.8126C30.6327 22.8948 30.5795 22.9934 30.5264 23.018C30.4838 23.0427 30.4307 23.1248 30.4201 23.1906C30.4094 23.3056 30.1649 23.8479 29.5375 25.2036C29.4099 25.4747 29.293 25.7541 29.2717 25.8198C29.2504 25.8855 29.1547 26.0909 29.0591 26.2635C28.9634 26.4442 28.8677 26.6496 28.8464 26.7154C28.8251 26.7893 28.7507 26.9536 28.6763 27.0933C28.6125 27.2248 28.538 27.3891 28.5168 27.4466C28.5061 27.5123 28.453 27.6191 28.4104 27.6931C28.3679 27.767 28.3148 27.8985 28.2935 27.9889C28.2722 28.071 28.2084 28.2025 28.1553 28.2765C28.0915 28.3586 28.0702 27.6109 28.1127 26.0663C28.134 24.7763 28.1872 22.4675 28.2084 20.9311C28.2297 19.3864 28.251 18.0965 28.2616 18.0554C28.2829 18.0061 28.2722 17.9486 28.2616 17.9075C28.2403 17.8336 28.2403 17.2913 28.2616 17.2091C28.3254 17.0612 28.3148 16.7244 28.251 16.519C28.2084 16.4039 28.2084 16.2807 28.2403 16.256C28.3041 16.1985 28.3679 12.797 28.3998 7.72755C28.4104 6.01856 28.4636 4.6218 28.5061 4.6218C28.5487 4.6218 28.538 4.55607 28.4849 4.46569C28.4211 4.38353 28.3998 4.29315 28.4317 4.2685C28.4742 4.24385 28.5699 0.645126 28.538 0.587608C28.5274 0.579391 23.1047 0.562958 16.4911 0.546524L4.44407 0.513664V0.858749Z" fill="black"/>
<path d="M97.3429 0.644953C97.3323 0.653168 96.9388 0.686033 96.471 0.718899C96.0032 0.751764 95.5991 0.784628 95.5672 0.801062C95.5353 0.817493 95.3014 0.850359 95.0356 0.875008C94.7697 0.899656 94.3976 0.95717 94.1956 1.00647C93.9936 1.04755 93.8022 1.06398 93.749 1.04755C93.7065 1.0229 93.6533 1.03933 93.632 1.08863C93.6108 1.13793 93.4406 1.17901 93.2493 1.19544C93.0685 1.20366 92.909 1.23652 92.909 1.26939C92.909 1.31047 92.8133 1.33512 92.6963 1.33512C92.59 1.33512 92.3136 1.39263 92.0903 1.46658C91.867 1.54053 91.5905 1.63091 91.4736 1.66377C90.1232 2.05815 87.5926 3.22486 86.4761 3.98076C85.6574 4.52303 84.7111 5.27071 84.1263 5.81299C83.8392 6.08412 83.584 6.3224 83.5521 6.34704C83.4245 6.44564 82.6058 7.40694 82.3931 7.70273C82.2655 7.88349 82.0316 8.22035 81.8721 8.44219C81.5531 8.89409 81.0002 9.88826 80.9577 10.0608C80.9471 10.1183 80.9152 10.2005 80.8833 10.2498C80.7557 10.4059 80.4899 11.0714 80.4154 11.4001C80.3942 11.4904 80.3729 11.5644 80.3623 11.5644C80.341 11.5644 80.2878 11.7534 80.2028 12.1395C80.1602 12.3203 80.1071 12.4928 80.0858 12.5175C79.9795 12.6571 79.8838 13.791 79.8838 15.0152C79.8944 16.5927 79.9476 17.2747 80.0752 17.2747C80.1283 17.2747 80.139 17.3076 80.1071 17.3404C80.0752 17.3733 80.1071 17.5705 80.1709 17.7759C80.2347 17.9731 80.2878 18.2113 80.3091 18.3017C80.3197 18.3921 80.3516 18.5236 80.3835 18.5893C80.4154 18.655 80.5005 18.8769 80.5749 19.0823C80.6494 19.2877 80.745 19.5259 80.7876 19.6163C80.8301 19.7067 80.9364 19.9121 81.0109 20.0682C81.4362 20.9967 82.7547 22.8946 83.2544 23.3054C83.3607 23.3958 83.4458 23.5026 83.4458 23.5355C83.4458 23.5766 83.5521 23.6998 83.6903 23.7984C83.8179 23.9052 84.0306 24.1024 84.1582 24.2257C84.4984 24.579 85.8913 25.6553 86.423 25.9839C86.6782 26.14 86.9334 26.3126 86.9972 26.3537C87.0609 26.403 87.2842 26.5344 87.4863 26.6412C87.6883 26.748 87.8903 26.8795 87.9328 26.9288C87.9754 26.9699 88.0179 26.9781 88.0179 26.9452C88.0179 26.9124 88.0817 26.9206 88.1561 26.9699C88.4219 27.1424 89.2407 27.545 89.347 27.545C89.4108 27.545 89.5703 27.619 89.7192 27.7094C89.868 27.7997 90.07 27.8737 90.1764 27.8737C90.2721 27.8737 90.3571 27.9065 90.3571 27.9558C90.3571 27.9969 90.4103 28.038 90.4635 28.038C90.5272 28.038 90.7718 28.1037 91.027 28.1941C91.6331 28.3995 92.1434 28.5474 92.2179 28.5392C92.2498 28.531 92.4199 28.5885 92.59 28.6542C92.7601 28.72 92.9303 28.7775 92.9622 28.7775C93.0579 28.7693 93.6001 28.8678 93.866 28.95C94.3232 29.0733 95.6097 29.2376 96.7368 29.3197C97.9383 29.4101 100.841 29.3444 101.096 29.2294C101.128 29.2211 101.362 29.1801 101.628 29.1554C102.16 29.0979 102.532 29.0404 102.532 29.024C102.532 29.0157 102.649 28.9911 102.798 28.9747C102.946 28.95 103.255 28.8925 103.489 28.8432C103.999 28.7282 103.978 28.7364 104.18 28.6789C104.265 28.6542 104.584 28.5638 104.871 28.4899C105.977 28.1859 108.252 27.2821 108.624 26.9945C108.699 26.937 108.816 26.8877 108.869 26.8877C108.922 26.8877 109.028 26.8466 109.103 26.8056C109.177 26.7563 109.571 26.518 109.975 26.2633C110.389 26.0086 110.9 25.6635 111.123 25.4827C111.336 25.3102 111.516 25.187 111.516 25.2116C111.516 25.302 112.75 24.1764 113.345 23.5601C114.302 22.5495 114.355 22.4838 114.504 22.1798C114.568 22.0566 114.664 21.958 114.706 21.958C114.759 21.958 114.823 21.8429 114.866 21.7115C114.908 21.5718 114.972 21.465 115.015 21.465C115.057 21.465 115.206 21.2514 115.344 20.9884C115.482 20.7337 115.663 20.3887 115.759 20.2325C115.844 20.0764 115.918 19.9285 115.929 19.9039C115.94 19.8792 115.982 19.7478 116.035 19.6163C116.078 19.4766 116.163 19.3205 116.227 19.263C116.28 19.2137 116.301 19.1644 116.259 19.1644C116.227 19.1644 116.248 19.074 116.301 18.959C116.397 18.7536 116.45 18.6139 116.567 18.1127C116.599 17.9895 116.652 17.8334 116.684 17.7677C116.727 17.7019 116.758 17.554 116.78 17.439C116.79 17.324 116.843 16.9543 116.897 16.6174C116.992 15.9765 117.003 13.6924 116.907 13.3309C116.875 13.2158 116.822 12.9776 116.79 12.7968C116.684 12.2052 116.599 11.9012 116.461 11.4822C116.269 10.9399 115.982 10.2087 115.865 10.0033C115.823 9.91291 115.663 9.61712 115.514 9.34598C114.983 8.3436 113.845 6.86467 113.005 6.06769C111.261 4.42444 109.156 3.0934 106.891 2.21426C105.722 1.75415 104.637 1.41728 104.563 1.48301C104.531 1.50766 104.499 1.48301 104.499 1.4255C104.499 1.36798 104.435 1.33512 104.35 1.35977C104.275 1.38442 104.169 1.3762 104.116 1.33512C104.01 1.26117 101.989 0.866791 101.362 0.809277C100.224 0.69425 99.5652 0.653168 98.5125 0.644953C97.8852 0.636736 97.3535 0.636736 97.3429 0.644953Z" fill="black"/>
<path d="M96.4604 52.2683C96.4285 52.2929 96.3009 52.3176 96.1733 52.3258C95.7799 52.3505 94.9824 52.4326 94.9824 52.4408C94.9824 52.4573 94.6102 52.523 94.2913 52.5559C94.1424 52.5723 94.0254 52.5969 94.0254 52.6052C94.0254 52.6216 93.8341 52.6545 93.3981 52.7284C93.228 52.753 93.0472 52.7941 92.9941 52.8188C92.9409 52.8434 92.7814 52.8845 92.6219 52.9009C92.4624 52.9256 92.2923 52.9667 92.2285 52.9995C92.1647 53.0324 92.0903 53.0571 92.0584 53.0571C92.0265 53.0653 91.8244 53.131 91.5905 53.2049C91.3672 53.2789 91.1652 53.3446 91.1546 53.3446C90.9526 53.3446 88.1561 54.5113 88.0179 54.6592C87.986 54.6839 87.784 54.7907 87.5713 54.8975C87.348 54.9961 87.1673 55.1111 87.1673 55.1522C87.1673 55.1933 87.0716 55.2508 86.9546 55.2754C86.6144 55.3576 84.307 57.1652 83.5946 57.9047C82.8929 58.6277 82.1698 59.515 82.1698 59.6629C82.1698 59.7122 82.1273 59.7533 82.0848 59.7533C82.0423 59.7533 81.8721 59.9669 81.7233 60.2216C81.383 60.7886 80.9152 61.6184 80.8833 61.7088C80.862 61.791 80.8195 61.8896 80.6706 62.2593C80.5962 62.44 80.5218 62.6208 80.5111 62.6701C80.5005 62.7112 80.4048 63.007 80.3091 63.3274C79.9582 64.4612 79.8838 65.0117 79.8838 66.6139C79.8838 67.8792 79.937 68.4297 80.0964 69.0377C80.1283 69.1527 80.1815 69.3746 80.2134 69.5307C80.2453 69.6868 80.2985 69.8922 80.3304 69.9826C80.3729 70.073 80.4154 70.1962 80.4261 70.2619C80.5856 70.9521 81.7552 73.0801 82.4357 73.9264C82.5845 74.1072 82.7334 74.3126 82.7759 74.3783C82.8184 74.444 82.9035 74.5508 82.9779 74.6248C83.0524 74.6905 83.3714 75.0109 83.6797 75.3396C85.2853 77.0075 87.6883 78.5275 90.2295 79.4724C90.7399 79.6614 91.2396 79.8503 91.3353 79.8914C91.4417 79.9325 91.6012 79.9654 91.6862 79.9654C91.7713 79.9654 91.8457 80.0064 91.8457 80.0557C91.8457 80.0968 91.8776 80.1215 91.9308 80.105C91.9733 80.0804 92.1222 80.105 92.271 80.1543C92.4199 80.1954 92.6325 80.2529 92.7495 80.2694C92.8665 80.2858 93.0366 80.3187 93.1217 80.3515C93.313 80.4173 93.4194 80.4337 93.7596 80.4912C94.0148 80.5323 94.5996 80.6391 94.7166 80.6637C94.8123 80.6884 95.5034 80.7788 95.9394 80.8363C96.6305 80.9185 100.065 80.9513 100.511 80.8692C100.745 80.8281 101.149 80.7788 101.415 80.7541C101.979 80.7048 102.489 80.6309 102.595 80.5816C102.638 80.5569 102.851 80.5241 103.074 80.4912C103.287 80.4666 103.595 80.409 103.744 80.3597C103.893 80.3187 104.095 80.2694 104.18 80.2529C104.414 80.2119 105.966 79.7353 106.519 79.5299C107.561 79.1437 109.018 78.4207 110.283 77.6648C111.07 77.1965 113.824 74.8713 113.59 74.8713C113.558 74.8713 113.632 74.7891 113.749 74.6823C114.164 74.3454 115.047 73.0801 115.77 71.7902C115.993 71.3958 116.025 71.3136 116.131 70.9275C116.163 70.8371 116.216 70.7138 116.259 70.6645C116.312 70.607 116.354 70.5084 116.365 70.4345C116.376 70.3688 116.461 70.073 116.546 69.7772C116.641 69.4814 116.748 69.0541 116.79 68.8323C116.822 68.6023 116.886 68.249 116.939 68.0353C117.067 67.3534 116.982 65.1925 116.78 64.3134C116.567 63.3603 116.535 63.2452 116.514 63.2452C116.503 63.2452 116.482 63.1549 116.45 63.0398C116.429 62.9248 116.365 62.744 116.312 62.629C116.259 62.514 116.152 62.2593 116.078 62.0539C116.003 61.8485 115.876 61.5938 115.801 61.4787C115.727 61.3637 115.663 61.2487 115.663 61.2158C115.663 61.183 115.546 60.9529 115.397 60.7064C115.249 60.4599 115.132 60.2134 115.132 60.1723C115.132 60.1231 115.1 60.082 115.047 60.082C115.004 60.082 114.908 59.9587 114.823 59.8108C114.738 59.6712 114.642 59.5315 114.611 59.5068C114.579 59.4822 114.43 59.2932 114.281 59.0714C114.143 58.8577 113.983 58.6852 113.941 58.6852C113.888 58.6852 113.856 58.6441 113.856 58.5948C113.856 58.5209 113.313 57.9293 113.111 57.7814C113.079 57.7568 112.931 57.6089 112.782 57.4528C112.25 56.8941 110.336 55.4726 109.709 55.1604C109.56 55.0865 109.347 54.9632 109.23 54.8893C108.986 54.725 106.966 53.7554 106.881 53.7554C106.849 53.7554 106.476 53.6322 106.062 53.4761C104.999 53.0899 103.233 52.6462 102.16 52.4983C101.67 52.4244 101.16 52.3669 100.618 52.3094C100.012 52.2436 96.5348 52.2108 96.4604 52.2683Z" fill="black"/>
</svg>
